<svg id="Layer_1" enable-background="new 0 0 512 512" height="512" viewBox="0 0 512 512" width="512" xmlns="http://www.w3.org/2000/svg"><g id="XMLID_1097_"><g id="XMLID_1069_"><path id="XMLID_218_" d="m10 373c0-29.271 23.729-53 53-53h375c35.346 0 64-28.654 64-64v-64-53c0 29.271-23.729 53-53 53h-375c-35.346 0-64 28.654-64 64v64z" fill="#ffcd69"/></g><g id="XMLID_1066_"><path id="XMLID_217_" d="m10 438c0 35.346 28.654 64 64 64h428v-128h-436c-30.928 0-56-25.072-56-56z" fill="#ffe6b4"/></g><g id="XMLID_1065_"><path id="XMLID_156_" d="m502 74c0-35.346-28.654-64-64-64h-428v128h436c30.928 0 56 25.072 56 56z" fill="#ffe6b4"/></g><g id="XMLID_202_"><path id="XMLID_226_" d="m438 0h-428c-5.523 0-10 4.477-10 10v128c0 5.523 4.477 10 10 10h436c14.826 0 28.029 7.058 36.447 17.983-7.89 9.76-19.949 16.017-33.447 16.017h-147.873c-5.522 0-10 4.477-10 10s4.478 10 10 10h147.873c16.235 0 31.054-6.175 42.236-16.298.493 2.694.764 5.464.764 8.298v62c0 29.776-24.225 54-54 54h-375c-16.235 0-31.054 6.175-42.236 16.298-.493-2.694-.764-5.464-.764-8.298v-62c0-29.776 24.224-54 54-54h137.127c5.523 0 10-4.477 10-10s-4.477-10-10-10h-137.127c-40.804 0-74 33.196-74 74v182c0 40.804 33.196 74 74 74h428c5.522 0 10-4.477 10-10v-128c0-5.523-4.478-10-10-10h-436c-14.826 0-28.029-7.058-36.447-17.983 7.89-9.76 19.949-16.017 33.447-16.017h375c40.804 0 74-33.196 74-74v-182c0-40.804-33.196-74-74-74zm-384 382.889v15.342c0 5.523 4.477 10 10 10s10-4.477 10-10v-14.231h24v31.5c0 5.523 4.477 10 10 10s10-4.477 10-10v-31.5h24v14.23c0 5.523 4.477 10 10 10s10-4.477 10-10v-14.23h24v31.5c0 5.523 4.477 10 10 10s10-4.477 10-10v-31.5h24v14.23c0 5.523 4.477 10 10 10s10-4.477 10-10v-14.23h24v31.5c0 5.523 4.478 10 10 10s10-4.477 10-10v-31.5h24v14.23c0 5.523 4.478 10 10 10s10-4.477 10-10v-14.23h24v31.5c0 5.523 4.478 10 10 10s10-4.477 10-10v-31.5h24v14.23c0 5.523 4.478 10 10 10s10-4.477 10-10v-14.23h24v31.5c0 5.523 4.478 10 10 10s10-4.477 10-10v-31.5h22v108h-418c-29.776 0-54-24.224-54-54v-65c0-2.437.214-4.824.606-7.152 9.078 8.617 20.593 14.679 33.394 17.041zm392-254.889h-426v-108h34v14.27c0 5.523 4.477 10 10 10s10-4.477 10-10v-14.27h24v31.54c0 5.523 4.477 10 10 10s10-4.477 10-10v-31.54h24v14.27c0 5.523 4.477 10 10 10s10-4.477 10-10v-14.27h24v31.54c0 5.523 4.477 10 10 10s10-4.477 10-10v-31.54h24v14.27c0 5.523 4.477 10 10 10s10-4.477 10-10v-14.27h24v31.54c0 5.523 4.478 10 10 10s10-4.477 10-10v-31.54h24v14.27c0 5.523 4.478 10 10 10s10-4.477 10-10v-14.27h24v31.54c0 5.523 4.478 10 10 10s10-4.477 10-10v-31.54h24v14.27c0 5.523 4.478 10 10 10s10-4.477 10-10v-14.27h12c4.125 0 8.138.48 12 1.361v30.179c0 5.523 4.478 10 10 10s10-4.477 10-10v-21.003c13.333 9.842 22 25.657 22 43.463v65c0 2.437-.214 4.824-.606 7.152-11.839-11.238-27.821-18.152-45.394-18.152z"/><path id="XMLID_228_" d="m263.2 199.07c1.859-1.86 2.93-4.44 2.93-7.07s-1.07-5.21-2.93-7.07-4.44-2.93-7.07-2.93-5.21 1.07-7.07 2.93c-1.87 1.86-2.93 4.44-2.93 7.07s1.06 5.21 2.93 7.07c1.86 1.86 4.44 2.93 7.07 2.93s5.21-1.07 7.07-2.93z"/></g></g></svg>