<svg id="Layer_1" enable-background="new 0 0 512 512" height="512" viewBox="0 0 512 512" width="512" xmlns="http://www.w3.org/2000/svg"><g id="XMLID_301_"><g id="XMLID_1668_"><g id="XMLID_1670_"><g id="XMLID_1736_"><path id="XMLID_1814_" d="m10 50.009h492v92.534h-492z" fill="#80b6ff"/><path id="XMLID_1813_" d="m10 142.543h492v359.457h-492z" fill="#fff"/><g fill="#ffcd69"><path id="XMLID_1812_" d="m10 142.543h123v119.457h-123z"/><path id="XMLID_1811_" d="m256 142.543h123v119.457h-123z"/><path id="XMLID_1810_" d="m133 262h123v119.457h-123z"/><path id="XMLID_1809_" d="m379 262h123v119.457h-123z"/><path id="XMLID_1808_" d="m10 382.543h123v119.457h-123z"/><path id="XMLID_1807_" d="m256 382.543h123v119.457h-123z"/></g><path id="XMLID_1799_" d="m84 90c-11.046 0-20-8.954-20-20v-40c0-11.046 8.954-20 20-20 11.046 0 20 8.954 20 20v40c0 11.046-8.954 20-20 20z" fill="#e2e9ee"/><path id="XMLID_1746_" d="m428 90c11.046 0 20-8.954 20-20v-40c0-11.046-8.954-20-20-20-11.046 0-20 8.954-20 20v40c0 11.046 8.954 20 20 20z" fill="#e2e9ee"/><path id="XMLID_1742_" d="m256 90c-11.046 0-20-8.954-20-20v-40c0-11.046 8.954-20 20-20 11.046 0 20 8.954 20 20v40c0 11.046-8.954 20-20 20z" fill="#e2e9ee"/></g></g></g><g id="XMLID_1035_"><path id="XMLID_1289_" d="m502 40.009h-44v-10.009c0-16.542-13.458-30-30-30s-30 13.458-30 30v10.009h-112v-10.009c0-16.542-13.458-30-30-30s-30 13.458-30 30v10.009h-112v-10.009c0-16.542-13.458-30-30-30s-30 13.458-30 30v10.009h-44c-5.523 0-10 4.477-10 10v451.991c0 5.523 4.477 10 10 10h201c5.523 0 10-4.477 10-10s-4.477-10-10-10h-68v-100h103v64.333c0 5.523 4.477 10 10 10s10-4.477 10-10v-64.333h103v100h-68c-5.523 0-10 4.477-10 10s4.477 10 10 10h201c5.523 0 10-4.477 10-10v-451.991c0-5.523-4.477-10-10-10zm-482 231.991h103v100h-103zm0-20v-99.457h103v99.457zm123-99.457h103v99.457h-103zm123 0h103v99.457h-103zm123 0h103v99.457h-103zm103 119.457v100h-103v-100zm-74-242c0-5.514 4.486-10 10-10s10 4.486 10 10v40c0 5.514-4.486 10-10 10s-10-4.486-10-10zm-172 0c0-5.514 4.486-10 10-10s10 4.486 10 10v40c0 5.514-4.486 10-10 10s-10-4.486-10-10zm-172 0c0-5.514 4.486-10 10-10s10 4.486 10 10v40c0 5.514-4.486 10-10 10s-10-4.486-10-10zm-20 30.009v9.991c0 16.542 13.458 30 30 30s30-13.458 30-30v-9.991h112v9.991c0 16.542 13.458 30 30 30s30-13.458 30-30v-9.991h112v9.991c0 16.542 13.458 30 30 30s30-13.458 30-30v-9.991h34v72.534h-472v-72.534zm69 431.991h-103v-100h103zm20-120v-100h103v100zm123 0v-100h103v100zm123 120v-100h103v100z"/><path id="XMLID_1385_" d="m256 492c-2.63 0-5.21 1.07-7.07 2.93s-2.93 4.44-2.93 7.07 1.07 5.21 2.93 7.07 4.44 2.93 7.07 2.93 5.21-1.07 7.07-2.93 2.93-4.44 2.93-7.07-1.07-5.21-2.93-7.07-4.44-2.93-7.07-2.93z"/><path id="XMLID_1386_" d="m95.207 185.013c-3.905-3.905-10.237-3.905-14.143 0l-13.304 13.304-5.825-5.826c-3.905-3.905-10.237-3.905-14.143 0-3.905 3.905-3.905 10.237 0 14.143l12.896 12.896c1.953 1.953 4.512 2.929 7.071 2.929s5.119-.976 7.071-2.929l20.375-20.375c3.907-3.905 3.907-10.237.002-14.142z"/><path id="XMLID_1387_" d="m341.207 185.013c-3.905-3.905-10.237-3.905-14.143 0l-13.304 13.304-5.825-5.826c-3.905-3.905-10.237-3.905-14.143 0-3.905 3.905-3.905 10.237 0 14.143l12.896 12.896c1.953 1.953 4.512 2.929 7.071 2.929s5.119-.976 7.071-2.929l20.375-20.375c3.907-3.905 3.907-10.237.002-14.142z"/><path id="XMLID_1391_" d="m218.207 304.47c-3.905-3.905-10.237-3.905-14.143 0l-13.304 13.304-5.826-5.825c-3.905-3.905-10.237-3.905-14.142 0s-3.905 10.237 0 14.142l12.896 12.896c1.953 1.953 4.512 2.929 7.071 2.929s5.119-.977 7.071-2.929l20.375-20.375c3.907-3.905 3.907-10.237.002-14.142z"/><path id="XMLID_1392_" d="m416.793 326.091 12.896 12.896c1.953 1.953 4.512 2.929 7.071 2.929s5.119-.977 7.071-2.929l20.375-20.375c3.905-3.905 3.905-10.237 0-14.143-3.905-3.905-10.237-3.905-14.143 0l-13.304 13.304-5.826-5.825c-3.905-3.905-10.237-3.905-14.142 0s-3.903 10.238.002 14.143z"/><path id="XMLID_1394_" d="m47.793 446.634 12.896 12.896c1.953 1.953 4.512 2.929 7.071 2.929s5.119-.976 7.071-2.929l20.375-20.375c3.905-3.905 3.905-10.237 0-14.143-3.905-3.905-10.237-3.905-14.143 0l-13.304 13.304-5.825-5.826c-3.905-3.905-10.237-3.905-14.143 0-3.903 3.906-3.903 10.239.002 14.144z"/><path id="XMLID_1396_" d="m306.689 459.53c1.953 1.953 4.512 2.929 7.071 2.929s5.119-.976 7.071-2.929l20.375-20.375c3.905-3.905 3.905-10.237 0-14.143-3.905-3.905-10.237-3.905-14.143 0l-13.304 13.304-5.825-5.826c-3.905-3.905-10.237-3.905-14.143 0-3.905 3.905-3.905 10.237 0 14.143z"/></g></g></svg>