<svg id="Layer_1" enable-background="new 0 0 512 512" height="512" viewBox="0 0 512 512" width="512" xmlns="http://www.w3.org/2000/svg"><g id="XMLID_325_"><path id="XMLID_669_" d="m312 324h23c13.807 0 25-11.193 25-25v-86c0-13.807-11.193-25-25-25h-23z" fill="#e2e9ee"/><path id="XMLID_1470_" d="m470 288h-110v-64h110c17.673 0 32 14.327 32 32 0 17.673-14.327 32-32 32z" fill="#80b6ff"/><path id="XMLID_1466_" d="m272 50h-32c-22.091 0-40 17.909-40 40v332c0 22.091 17.909 40 40 40h32c22.091 0 40-17.909 40-40v-332c0-22.091-17.909-40-40-40z" fill="#85e5f8"/><path id="XMLID_676_" d="m200 324h-23c-13.807 0-25-11.193-25-25v-86c0-13.807 11.193-25 25-25h23z" fill="#e2e9ee"/><path id="XMLID_675_" d="m42 288h110v-64h-110c-17.673 0-32 14.327-32 32 0 17.673 14.327 32 32 32z" fill="#80b6ff"/><g id="XMLID_1519_"><path id="XMLID_1520_" d="m268 102h-24c-5.523 0-10 4.477-10 10s4.477 10 10 10h24c5.522 0 10-4.477 10-10s-4.478-10-10-10z"/><path id="XMLID_1553_" d="m268 174h-24c-5.523 0-10 4.477-10 10s4.477 10 10 10h24c5.522 0 10-4.477 10-10s-4.478-10-10-10z"/><path id="XMLID_1554_" d="m268 246h-24c-5.523 0-10 4.477-10 10s4.477 10 10 10h24c5.522 0 10-4.477 10-10s-4.478-10-10-10z"/><path id="XMLID_1555_" d="m268 318h-24c-5.523 0-10 4.477-10 10s4.477 10 10 10h24c5.522 0 10-4.477 10-10s-4.478-10-10-10z"/><path id="XMLID_1556_" d="m268 390h-24c-5.523 0-10 4.477-10 10s4.477 10 10 10h24c5.522 0 10-4.477 10-10s-4.478-10-10-10z"/><path id="XMLID_1564_" d="m470 214h-100v-1c0-19.299-15.701-35-35-35h-13v-88c0-27.57-22.43-50-50-50h-32c-27.57 0-50 22.43-50 50v88h-13c-19.299 0-35 15.701-35 35v1h-100c-23.159 0-42 18.841-42 42s18.841 42 42 42h100v1c0 19.299 15.701 35 35 35h13v88c0 27.57 22.43 50 50 50h32c27.57 0 50-22.43 50-50v-88h13c19.299 0 35-15.701 35-35v-1h100c23.159 0 42-18.841 42-42s-18.841-42-42-42zm-428 64c-12.131 0-22-9.869-22-22s9.869-22 22-22h100v44zm135 36c-8.271 0-15-6.729-15-15v-86c0-8.271 6.729-15 15-15h13v116zm173-15c0 8.271-6.729 15-15 15h-13v-12.937c0-5.523-4.478-10-10-10s-10 4.477-10 10v120.937c0 16.542-13.458 30-30 30h-32c-16.542 0-30-13.458-30-30v-332c0-16.542 13.458-30 30-30h32c16.542 0 30 13.458 30 30v121.063c0 5.523 4.478 10 10 10s10-4.477 10-10v-13.063h13c8.271 0 15 6.729 15 15zm120-21h-100v-44h100c12.131 0 22 9.869 22 22s-9.869 22-22 22z"/><path id="XMLID_1581_" d="m312.06 246.06c-2.63 0-5.21 1.07-7.069 2.93-1.86 1.86-2.931 4.44-2.931 7.07 0 2.64 1.07 5.21 2.931 7.07 1.859 1.87 4.439 2.93 7.069 2.93 2.641 0 5.21-1.06 7.07-2.93 1.87-1.86 2.93-4.43 2.93-7.07 0-2.63-1.06-5.21-2.93-7.07-1.86-1.86-4.43-2.93-7.07-2.93z"/></g></g></svg>