<svg id="Layer_1" enable-background="new 0 0 512 512" height="512" viewBox="0 0 512 512" width="512" xmlns="http://www.w3.org/2000/svg"><g id="XMLID_1763_"><path id="XMLID_964_" d="m372.5 156h-233c-47.22 0-85.5 38.28-85.5 85.5v189c0 28.443 23.057 51.5 51.5 51.5h301c28.443 0 51.5-23.057 51.5-51.5v-189c0-47.22-38.28-85.5-85.5-85.5z" fill="#80b6ff"/><path id="XMLID_963_" d="m361 428h-210c-18.225 0-33-14.775-33-33v-86c0-18.225 14.775-33 33-33h210c18.225 0 33 14.775 33 33v86c0 18.225-14.775 33-33 33z" fill="#fff"/><g fill="#ffda8f"><path id="XMLID_1090_" d="m361 276h-210c-18.225 0-33 14.775-33 33v15h276v-15c0-18.225-14.775-33-33-33z"/><path id="XMLID_962_" d="m458 428v-140.463c24.301 0 44 19.699 44 44v52.463c0 24.301-19.699 44-44 44z"/><path id="XMLID_959_" d="m54 428v-140.463c-24.301 0-44 19.699-44 44v52.463c0 24.301 19.699 44 44 44z"/></g><g id="XMLID_1682_"><g id="XMLID_2384_"><path id="XMLID_2385_" d="m348 228.127c-13.255 0-24-10.745-24-24v-58.127c0-37.496-30.505-68-68-68s-68 30.504-68 67.999v58.127c0 13.255-10.745 24-24 24s-24-10.745-24-24v-58.127c0-63.962 52.038-115.999 116-115.999 63.963 0 116 52.037 116 115.999v58.127c0 13.256-10.745 24.001-24 24.001z" fill="#ffda8f"/></g><g fill="#fff"><path id="XMLID_2381_" d="m324 179.793v24.333c0 13.255 10.745 24 24 24s24-10.745 24-24v-24.333h-43.667z"/><path id="XMLID_2378_" d="m188 179.793v24.333c0 13.255-10.745 24-24 24s-24-10.745-24-24v-24.333h43.667z"/></g></g><g id="XMLID_1523_"><path id="XMLID_1600_" d="m361 266h-210c-23.71 0-43 19.29-43 43v86c0 23.71 19.29 43 43 43h60c5.522 0 10-4.477 10-10s-4.478-10-10-10h-60c-12.683 0-23-10.318-23-23v-61h177v23.768c0 5.523 4.478 10 10 10s10-4.477 10-10v-23.768h59v61c0 12.682-10.317 23-23 23h-60c-5.522 0-10 4.477-10 10s4.478 10 10 10h60c23.71 0 43-19.29 43-43v-86c0-23.71-19.29-43-43-43zm-233 48v-5c0-12.682 10.317-23 23-23h210c12.683 0 23 10.318 23 23v5z"/><path id="XMLID_1608_" d="m468 278.48v-36.98c0-49.453-37.784-90.245-86-95.028v-.472c0-69.477-56.523-126-126-126s-126 56.523-126 126v.472c-48.216 4.784-86 45.575-86 95.028v36.98c-25.012 4.705-44 26.698-44 53.057v52.463c0 26.485 19.172 48.562 44.362 53.121 3.314 30.808 29.464 54.879 61.138 54.879h301c31.674 0 57.824-24.071 61.138-54.879 25.191-4.559 44.362-26.636 44.362-53.121v-52.463c0-26.359-18.988-48.352-44-53.057zm-318-88.687h28v14.333c0 7.72-6.28 14-14 14s-14-6.28-14-14zm164-43.793h-116c0-31.981 26.019-58 58-58s58 26.019 58 58zm20 43.793h28v14.333c0 7.72-6.28 14-14 14s-14-6.28-14-14zm-184-43.793c0-58.448 47.552-106 106-106s106 47.551 106 106v23.794h-28v-23.794c0-43.009-34.99-78-78-78s-78 34.99-78 78v23.794h-28zm-130 238v-52.463c0-15.269 10.117-28.219 24-32.5v117.463c-13.883-4.28-24-17.231-24-32.5zm428 46.5c0 22.883-18.617 41.5-41.5 41.5h-301c-22.883 0-41.5-18.617-41.5-41.5v-189c0-38.411 28.84-70.192 66-74.881v37.508c0 18.748 15.252 34 34 34s34-15.252 34-34v-38.127h116v38.127c0 18.748 15.252 34 34 34s34-15.252 34-34v-37.508c37.16 4.689 66 36.47 66 74.881zm44-46.5c0 15.269-10.117 28.22-24 32.5v-117.463c13.883 4.28 24 17.23 24 32.5z"/><path id="XMLID_1624_" d="m239.667 212h32.666c5.522 0 10-4.477 10-10s-4.478-10-10-10h-32.666c-5.522 0-10 4.477-10 10s4.478 10 10 10z"/><path id="XMLID_1628_" d="m256 418c-2.63 0-5.21 1.07-7.07 2.93s-2.93 4.44-2.93 7.07 1.069 5.21 2.93 7.07 4.44 2.93 7.07 2.93 5.21-1.07 7.069-2.93c1.86-1.86 2.931-4.44 2.931-7.07s-1.07-5.21-2.931-7.07c-1.859-1.86-4.439-2.93-7.069-2.93z"/></g></g></svg>