<svg id="Layer_1" enable-background="new 0 0 512 512" height="512" viewBox="0 0 512 512" width="512" xmlns="http://www.w3.org/2000/svg"><g id="XMLID_780_"><path id="XMLID_1400_" d="m315 10 72 10.333v91.252c0 44.023 19.387 85.812 53 114.242v276.173h-184-184v-276.173c33.613-28.429 53-70.218 53-114.242v-91.252l72-10.333z" fill="#85e5f8"/><path id="XMLID_1412_" d="m440 227.398c-50.648 19.731-84 68.517-84 122.872v151.73h84z" fill="#ffda8f"/><path id="XMLID_1410_" d="m72 227.398c50.648 19.731 84 68.517 84 122.872v151.73h-84z" fill="#ffda8f"/><path id="XMLID_670_" d="m256 138.607c-32.585 0-59-26.415-59-59v-69.607h118v69.607c0 32.585-26.415 59-59 59z" fill="#8aa8bd"/><g id="XMLID_135_"><path id="XMLID_145_" d="m446.458 218.191c-31.432-26.583-49.458-65.44-49.458-106.606v-91.252c0-4.974-3.655-9.192-8.579-9.898l-72.001-10.333v.011c-.465-.067-.937-.113-1.42-.113h-118c-.483 0-.955.046-1.42.112v-.01l-72.001 10.333c-4.924.707-8.579 4.924-8.579 9.898v91.251c0 41.167-18.026 80.023-49.458 106.606-2.246 1.9-3.542 4.693-3.542 7.635v101.175c0 5.523 4.478 10 10 10s10-4.477 10-10v-83.993c39.312 21.07 64 61.715 64 107.263v141.73h-64v-75c0-5.523-4.478-10-10-10s-10 4.477-10 10v85c0 5.523 4.478 10 10 10h368c5.522 0 10-4.477 10-10v-276.173c0-2.943-1.296-5.736-3.542-7.636zm-239.458-198.191h98v59.607c0 27.019-21.981 49-49 49s-49-21.981-49-49zm-65.752 250.207c-13.476-19.712-31.463-35.485-52.526-46.232 29.562-29.78 46.278-70.012 46.278-112.39v-82.584l52-7.463v58.069c0 38.047 30.953 69 69 69s69-30.953 69-69v-58.069l52 7.463v82.584c0 42.378 16.716 82.61 46.278 112.389-21.063 10.747-39.051 26.52-52.526 46.232-16.193 23.687-24.752 51.373-24.752 80.065v141.729h-180v-141.729c0-28.692-8.559-56.378-24.752-80.064zm224.752 221.793v-141.729c0-45.547 24.688-86.193 64-107.263v248.992z"/><path id="XMLID_148_" d="m72 382c2.63 0 5.21-1.07 7.069-2.93 1.861-1.86 2.931-4.44 2.931-7.07s-1.07-5.21-2.931-7.07c-1.859-1.86-4.439-2.93-7.069-2.93s-5.21 1.07-7.07 2.93-2.93 4.44-2.93 7.07 1.069 5.21 2.93 7.07 4.44 2.93 7.07 2.93z"/></g></g></svg>