<svg id="Layer_1" enable-background="new 0 0 512.002 512.002" height="512" viewBox="0 0 512.002 512.002" width="512" xmlns="http://www.w3.org/2000/svg"><g id="XMLID_1490_"><path id="XMLID_3666_" d="m189.492 72.042h-53.5v-9.708c0-28.903 23.43-52.333 52.333-52.333h104.206 16.46v38.021c0 13.266-10.754 24.021-24.021 24.021h-22.346-73.132z" fill="#8aa8bd"/><path id="XMLID_3665_" d="m135.992 72.042h160v44.466h-160z" fill="#fff"/><path id="XMLID_3664_" d="m295.992 116.508v52.534c0 44.183-35.817 80-80 80-44.183 0-80-35.817-80-80v-52.534z" fill="#efb789"/><path id="XMLID_3663_" d="m29.142 502c-7.188-12.876-11.285-27.712-11.285-43.506 0-12.94 2.772-25.226 7.72-36.329-9.789-13.532-15.567-30.154-15.567-48.132 0-45.429 36.828-82.256 82.257-82.256h62.521c15.228 0 27.572-12.344 27.572-27.572v-20.775h67.265v20.775c0 15.228 12.344 27.572 27.572 27.572h62.521c45.429 0 82.257 36.827 82.257 82.256 0 17.979-5.778 34.6-15.567 48.132 4.947 11.103 7.72 23.389 7.72 36.329 0 15.794-4.096 30.63-11.285 43.506z" fill="#efb789"/><path id="XMLID_3662_" d="m98.483 501.981v-85.102c8.889-18.796 13.5-39.329 13.5-60.122v-53.138l40-11.843v35.639c0 35.351 28.658 64.009 64.009 64.009s64.009-28.658 64.009-64.009v-35.639l40 11.843v53.138c0 20.792 4.611 41.325 13.5 60.122v85.102z" fill="#80b6ff"/><g id="XMLID_1848_"><path id="XMLID_3654_" d="m501.992 478v-56c0-13.255-10.745-24-24-24h-30c-13.255 0-24 10.745-24 24v56c0 13.255 10.745 24 24 24h30c13.255 0 24-10.745 24-24z" fill="#85e5f8"/><path id="XMLID_2259_" d="m357.659 406.667h46v86.667h-46z" fill="#e2e9ee" transform="matrix(0 1 -1 0 830.659 69.341)"/><path id="XMLID_2258_" d="m337.325 478v-56c0-13.255-10.745-24-24-24h-29.576c-13.255 0-24 10.745-24 24v56c0 13.255 10.745 24 24 24h29.576c13.255 0 24-10.745 24-24z" fill="#85e5f8"/></g><g id="XMLID_330_"><path id="XMLID_375_" d="m477.992 388h-30c-6.61 0-12.782 1.903-18.008 5.18 1.315-6.238 1.99-12.644 1.99-19.147 0-50.87-41.386-92.257-92.256-92.257h-62.521c-9.689 0-17.572-7.883-17.572-17.571v-16.472c27.63-15.382 46.367-44.887 46.367-78.691v-94.301c7.908-6.235 13-15.891 13-26.72v-38.021c0-5.522-4.477-10-10-10h-120.667c-34.371 0-62.333 27.963-62.333 62.333v106.709c0 33.804 18.737 63.31 46.367 78.691v16.472c0 9.688-7.883 17.571-17.572 17.571h-62.52c-50.871 0-92.257 41.387-92.257 92.257 0 17.624 4.919 34.549 14.277 49.292-4.269 11.239-6.429 23.043-6.429 35.169 0 16.939 4.341 33.669 12.553 48.38 1.831 3.28 5.233 5.128 8.741 5.128 1.649 0 3.323-.409 4.865-1.271 4.822-2.692 6.549-8.783 3.857-13.605-6.553-11.738-10.016-25.097-10.016-38.632 0-11.198 2.306-22.052 6.854-32.259 1.452-3.258 1.058-7.042-1.032-9.932-8.943-12.361-13.67-26.979-13.67-42.271 0-39.843 32.414-72.257 72.257-72.257h9.716v54.98c0 19.188-4.336 38.499-12.54 55.846-.632 1.337-.96 2.797-.96 4.275v85.103c0 5.522 4.477 10 10 10s10-4.478 10-10v-82.898c8.838-19.463 13.5-40.96 13.5-62.325v-54.98h20v25.64c0 40.809 33.201 74.009 74.009 74.009s74.009-33.2 74.009-74.009v-25.64h20v54.98c0 10.554 1.105 21.002 3.278 31.243h-29.53c-18.748 0-34 15.252-34 34v56c0 18.748 15.252 34 34 34h29.576c17.049 0 31.204-12.615 33.629-29h53.303c-1.582 4.88-3.624 9.607-6.146 14.126-2.692 4.822-.965 10.914 3.857 13.605 1.543.861 3.215 1.271 4.865 1.271 3.507 0 6.91-1.849 8.741-5.128 2.406-4.311 4.455-8.776 6.181-13.357 5.65 10.965 17.078 18.484 30.237 18.484h30c18.748 0 34-15.252 34-34v-56c0-18.748-15.252-34-34-34zm-289.667-368h110.667v28.021c0 7.731-6.29 14.021-14.021 14.021h-22.347-1.632c-5.523 0-10 4.478-10 10s4.477 10 10 10h1.632 22.347 1.021v24.466h-140v-24.466h25c5.523 0 10-4.478 10-10s-4.477-10-10-10h-24.999c.157-23.209 19.087-42.042 42.332-42.042zm-42.333 149.042v-42.534h140v42.534c0 38.598-31.402 70-70 70s-70-31.402-70-70zm70 212.383c-29.781 0-54.009-24.229-54.009-54.009v-26.339c17.286-3.367 30.376-18.616 30.376-36.872v-8.318c7.535 2.052 15.457 3.155 23.633 3.155s16.098-1.102 23.633-3.155v8.318c0 18.256 13.09 33.505 30.376 36.872v26.339c0 29.78-24.228 54.009-54.009 54.009zm123.726-79.649c39.842 0 72.256 32.414 72.256 72.257 0 15.292-4.727 29.909-13.669 42.271-.162.224-.295.462-.437.696h-50.914c-1.161-7.846-5.013-14.824-10.583-19.969-4.224-13.019-6.37-26.542-6.37-40.274v-54.98h9.717zm-12.393 176.224c0 7.72-6.28 14-14 14h-29.575c-7.72 0-14-6.28-14-14v-56c0-7.72 6.28-14 14-14h29.576c7.72 0 14 6.28 14 14v56zm20-41h66.667v26h-66.667zm144.667 41c0 7.72-6.28 14-14 14h-30c-7.72 0-14-6.28-14-14v-56c0-7.72 6.28-14 14-14h30c7.72 0 14 6.28 14 14z"/><path id="XMLID_382_" d="m215.991 82.04c2.63 0 5.21-1.07 7.07-2.931 1.86-1.859 2.93-4.43 2.93-7.069 0-2.63-1.07-5.21-2.93-7.07s-4.44-2.93-7.07-2.93-5.21 1.069-7.07 2.93-2.93 4.44-2.93 7.07 1.07 5.21 2.93 7.069c1.86 1.861 4.44 2.931 7.07 2.931z"/></g></g></svg>