<svg id="Layer_1" enable-background="new 0 0 512 512" height="512" viewBox="0 0 512 512" width="512" xmlns="http://www.w3.org/2000/svg"><g id="XMLID_549_"><path id="XMLID_1179_" d="m148.556 272.127-88.333 189.873h-50.223l88.333-189.873z" fill="#8aa8bd"/><path id="XMLID_1177_" d="m363.444 272.127 88.333 189.873h50.223l-88.333-189.873z" fill="#8aa8bd"/><path id="XMLID_1078_" d="m438 136h-364c-35.346 0-64 28.654-64 64v72h492v-72c0-35.346-28.654-64-64-64z" fill="#ffcd69"/><g id="XMLID_1053_"><path id="XMLID_1070_" d="m84 156c-11.046 0-20-8.954-20-20v-21.029c0-35.121 27.89-64.429 63.007-64.964 35.743-.544 64.993 28.373 64.993 63.993v22h-40v-21.454c0-13.426-10.987-24.769-24.411-24.542-13.045.22-23.589 10.9-23.589 23.996v22c0 11.046-8.954 20-20 20z" fill="#e2e9ee"/></g><g id="XMLID_1076_"><path id="XMLID_1077_" d="m340 156c-11.046 0-20-8.954-20-20v-21.029c0-35.121 27.89-64.429 63.007-64.964 35.743-.544 64.993 28.373 64.993 63.993v22h-40v-21.454c0-13.426-10.987-24.769-24.411-24.542-13.045.22-23.589 10.9-23.589 23.996v22c0 11.046-8.954 20-20 20z" fill="#e2e9ee"/></g><g id="XMLID_240_"><path id="XMLID_255_" d="m512 272v-72c0-33.873-22.885-62.482-54-71.231v-14.769c0-19.952-7.848-38.67-22.099-52.705-14.246-14.03-33.062-21.597-53.047-21.286-40.171.612-72.854 34.24-72.854 74.963v11.028h-108v-12c0-19.952-7.848-38.67-22.099-52.705-14.246-14.03-33.089-21.597-53.047-21.286-40.171.612-72.854 34.24-72.854 74.963v13.785c-13.908 3.906-26.487 11.846-36.038 22.913-11.583 13.419-17.962 30.583-17.962 48.33v72c0 5.522 4.478 10 10 10h72.711l-81.777 175.782c-1.441 3.097-1.201 6.715.635 9.595s5.015 4.623 8.431 4.623h50.223c3.89 0 7.426-2.255 9.066-5.782l50.94-109.495h271.542l50.94 109.495c1.641 3.527 5.177 5.782 9.066 5.782h50.223c3.416 0 6.595-1.743 8.432-4.623 1.836-2.88 2.076-6.498.635-9.595l-81.778-175.782h72.711c5.522 0 10-4.477 10-10zm-182-157.028c0-29.861 23.847-54.519 53.159-54.965.283-.005.563-.007.846-.007 14.247 0 27.665 5.502 37.862 15.544 10.404 10.246 16.133 23.903 16.133 38.456v12h-20v-11.454c0-9.237-3.801-18.272-10.429-24.789-6.55-6.441-15.128-9.893-24.15-9.752-18.429.311-33.421 15.561-33.421 33.995v22c0 5.514-4.486 10-10 10s-10-4.486-10-10zm40 11.028v-12c0-7.591 6.172-13.87 13.758-13.997 3.613-.097 7.096 1.364 9.791 4.015 2.829 2.781 4.451 6.618 4.451 10.528v11.454zm-296-11.028c0-29.861 23.847-54.519 53.159-54.965.283-.005.563-.007.846-.007 14.247 0 27.665 5.502 37.862 15.544 10.404 10.246 16.133 23.903 16.133 38.456v12h-20v-11.454c0-9.237-3.801-18.272-10.429-24.789-6.55-6.441-15.136-9.893-24.15-9.752-18.429.311-33.421 15.561-33.421 33.995v22c0 5.514-4.486 10-10 10s-10-4.486-10-10zm40 11.028v-12c0-7.591 6.172-13.87 13.758-13.997 3.594-.097 7.097 1.364 9.791 4.015 2.829 2.781 4.451 6.618 4.451 10.528v11.454zm-60.154 326h-28.164l79.028-169.873h28.165zm404.308 0-79.029-169.873h28.165l79.028 169.873zm33.846-190h-190.873c-5.522 0-10 4.478-10 10s4.478 10 10 10h55.881l25.458 54.723h-252.932l25.458-54.723h56.135c5.522 0 10-4.478 10-10s-4.478-10-10-10h-191.127v-62c0-23.73 15.057-44.039 36.859-51.233 4.806 10.174 15.163 17.233 27.141 17.233 13.036 0 24.152-8.361 28.28-20h199.44c4.128 11.639 15.243 20 28.28 20s24.152-8.361 28.28-20h69.72c29.775 0 54 24.225 54 54z"/><path id="XMLID_305_" d="m256.13 262.13c-2.64 0-5.21 1.06-7.07 2.93-1.87 1.86-2.93 4.44-2.93 7.07s1.06 5.21 2.93 7.07c1.86 1.859 4.431 2.93 7.07 2.93 2.63 0 5.2-1.07 7.07-2.93 1.859-1.86 2.93-4.44 2.93-7.07s-1.07-5.21-2.93-7.07c-1.87-1.87-4.44-2.93-7.07-2.93z"/></g></g></svg>