<svg id="Layer_1" enable-background="new 0 0 512 512" height="512" viewBox="0 0 512 512" width="512" xmlns="http://www.w3.org/2000/svg"><g id="XMLID_678_"><path id="XMLID_536_" d="m483.417 268h-454.834c-10.263 0-18.583 8.32-18.583 18.583v26.833c0 10.264 8.32 18.584 18.583 18.584h454.833c10.264 0 18.584-8.32 18.584-18.583v-26.833c0-10.264-8.32-18.584-18.583-18.584z" fill="#80b6ff"/><path id="XMLID_535_" d="m44 332h40v116h-40z" fill="#8aa8bd"/><path id="XMLID_534_" d="m428 332h40v116h-40z" fill="#8aa8bd"/><circle id="XMLID_295_" cx="408" cy="144" fill="#85e5f8" r="80"/><circle id="XMLID_200_" cx="408" cy="144" fill="#99ebfa" r="40"/><path id="XMLID_494_" d="m388 224h40v224h-40z" fill="#e2e9ee"/><g id="XMLID_21_"><path id="XMLID_471_" d="m458 144c0-27.57-22.43-50-50-50s-50 22.43-50 50 22.43 50 50 50 50-22.43 50-50zm-80 0c0-16.542 13.458-30 30-30s30 13.458 30 30-13.458 30-30 30-30-13.458-30-30z"/><path id="XMLID_478_" d="m415.069 151.069c1.861-1.859 2.931-4.439 2.931-7.069s-1.07-5.21-2.931-7.07c-1.859-1.86-4.439-2.93-7.069-2.93s-5.21 1.069-7.07 2.93-2.93 4.44-2.93 7.07 1.069 5.21 2.93 7.069c1.86 1.86 4.44 2.931 7.07 2.931s5.21-1.07 7.069-2.931z"/><path id="XMLID_479_" d="m236 322c-2.63 0-5.21 1.069-7.07 2.93s-2.93 4.44-2.93 7.07 1.069 5.21 2.93 7.069c1.86 1.86 4.44 2.931 7.07 2.931s5.21-1.07 7.069-2.931c1.861-1.859 2.931-4.439 2.931-7.069s-1.07-5.21-2.931-7.07c-1.859-1.861-4.439-2.93-7.069-2.93z"/><path id="XMLID_482_" d="m483.417 258h-45.417v-29.148c34.92-12.383 60-45.741 60-84.852 0-49.626-40.374-90-90-90s-90 40.374-90 90c0 39.111 25.08 72.469 60 84.852v29.148h-349.417c-15.761 0-28.583 12.822-28.583 28.583v26.834c0 15.761 12.822 28.583 28.583 28.583h5.417v106c0 5.522 4.478 10 10 10h40c5.522 0 10-4.478 10-10v-60h284v60c0 5.522 4.478 10 10 10h80c5.522 0 10-4.478 10-10v-106h5.417c15.761 0 28.583-12.822 28.583-28.583v-26.834c0-15.761-12.822-28.583-28.583-28.583zm-145.417-114c0-38.598 31.402-70 70-70s70 31.402 70 70-31.402 70-70 70-70-31.402-70-70zm-264 294h-20v-96h20zm20-70v-26h97c5.522 0 10-4.478 10-10s-4.478-10-10-10h-162.417c-4.732 0-8.583-3.851-8.583-8.583v-26.834c0-4.732 3.851-8.583 8.583-8.583h349.417v44h-97c-5.522 0-10 4.478-10 10s4.478 10 10 10h97v26zm304-134h20v204h-20zm60 204h-20v-96h20zm34-124.583c0 4.732-3.851 8.583-8.583 8.583h-45.417v-44h45.417c4.732 0 8.583 3.851 8.583 8.583z"/></g></g></svg>