<svg id="Layer_1" enable-background="new 0 0 512.061 512.061" height="512" viewBox="0 0 512.061 512.061" width="512" xmlns="http://www.w3.org/2000/svg"><g id="XMLID_96_"><g id="XMLID_992_"><g id="XMLID_994_"><path id="XMLID_104_" d="m64.03 110.126h64v81.782h-64z" fill="#8aa8bd"/></g><g id="XMLID_993_"><path id="XMLID_103_" d="m384.03 110.126h64v81.782h-64z" fill="#8aa8bd"/></g><g id="XMLID_297_"><path id="XMLID_102_" d="m482.03 502h-452c0-24.301 19.699-44 44-44h364c24.301 0 44 19.699 44 44z" fill="#8aa8bd"/></g><g id="XMLID_296_"><path id="XMLID_101_" d="m313.03 312h-114c-14.912 0-27 12.088-27 27 0 14.912 12.088 27 27 27h114c14.912 0 27-12.088 27-27 0-14.912-12.088-27-27-27z" fill="#80b6ff"/></g><g id="XMLID_294_"><path id="XMLID_100_" d="m280.197 146h-48.333c-15.372 0-27.833 12.461-27.833 27.833v64.333c0 15.372 12.461 27.833 27.833 27.833h48.333c15.372 0 27.833-12.461 27.833-27.833v-64.333c0-15.372-12.461-27.833-27.833-27.833z" fill="#80b6ff"/></g><g id="XMLID_293_"><path id="XMLID_99_" d="m199.03 366h114v40h-114z" fill="#8aa8bd"/></g><g id="XMLID_292_"><path id="XMLID_98_" d="m234.03 10h44v136h-44z" fill="#e2e9ee"/></g><g id="XMLID_291_"><path id="XMLID_97_" d="m234.03 266h44v46h-44z" fill="#e2e9ee"/></g><g id="XMLID_290_"><path id="XMLID_4_" d="m234.03 406h44v48.5h-44z" fill="#e2e9ee"/></g></g><g id="XMLID_2_"><path id="XMLID_3_" d="m256.09 492.061c-2.63 0-5.2 1.07-7.069 2.931-1.86 1.859-2.931 4.439-2.931 7.069 0 2.631 1.07 5.211 2.931 7.07 1.859 1.86 4.439 2.93 7.069 2.93 2.641 0 5.21-1.069 7.07-2.93 1.86-1.859 2.93-4.43 2.93-7.07 0-2.63-1.069-5.21-2.93-7.069-1.86-1.861-4.44-2.931-7.07-2.931z"/><path id="XMLID_8_" d="m438.03 448h-150v-32h25c5.522 0 10-4.478 10-10v-31.384c15.558-4.375 27-18.68 27-35.617 0-20.401-16.598-36.999-37-36.999h-25v-26.82c17.115-3.618 30-18.838 30-37.014v-64.333c0-18.176-12.885-33.395-30-37.013v-76.82h98c11.028 0 20 8.972 20 20v20.126h-22c-5.522 0-10 4.478-10 10v115.75c0 14.475 11.775 26.25 26.25 26.25h31.5c14.475 0 26.25-11.775 26.25-26.25v-115.75c0-5.522-4.478-10-10-10h-22v-20.126c0-22.056-17.944-40-40-40h-98v-30c0-5.522-4.478-10-10-10h-44c-5.522 0-10 4.478-10 10v30h-98c-22.056 0-40 17.944-40 40v20.126h-22c-5.522 0-10 4.478-10 10v115.75c0 14.475 11.775 26.25 26.25 26.25h31.5c14.475 0 26.25-11.775 26.25-26.25v-115.75c0-5.522-4.478-10-10-10h-22v-20.126c0-11.028 8.972-20 20-20h98v76.82c-17.115 3.618-30 18.837-30 37.013v64.333c0 18.176 12.885 33.396 30 37.014v26.82h-25c-20.402 0-37 16.598-37 37 0 16.937 11.442 31.241 27 35.616v31.384c0 5.522 4.478 10 10 10h25v32h-150c-29.775 0-54 24.225-54 54 0 5.522 4.478 10 10 10h181.063c5.522 0 10-4.478 10-10s-4.478-10-10-10l-169.563-.001c4.281-13.883 17.231-23.999 32.5-23.999h364c15.27 0 28.22 10.117 32.5 24h-169.438c-5.522 0-10.006 4.478-10.006 10s4.483 10 10.006 10l180.938-.001c5.522 0 10-4.478 10-10 0-29.775-24.224-53.999-54-53.999zm0-222.124c0 3.446-2.804 6.25-6.25 6.25h-31.5c-3.446 0-6.25-2.804-6.25-6.25v-23.968h44zm0-105.75v61.782h-44v-61.782zm-320 105.75c0 3.446-2.804 6.25-6.25 6.25h-31.5c-3.446 0-6.25-2.804-6.25-6.25v-23.968h44zm0-105.75v61.782h-44v-61.782zm126-100.126h24v116h-24zm-30 218.166v-64.333c0-9.833 8-17.833 17.833-17.833h48.334c9.833 0 17.833 8 17.833 17.833v64.333c0 9.834-8 17.834-17.833 17.834h-48.334c-9.833 0-17.833-8-17.833-17.834zm54 37.834v26h-24v-26zm-86 62.999c0-9.373 7.626-16.999 17-16.999h114c9.374 0 17 7.626 17 17s-7.626 17-17 17h-114c-9.374 0-17-7.627-17-17.001zm86 109.001h-24v-32h24zm-59-52v-20h94v20z"/></g></g></svg>