<svg id="Layer_1" enable-background="new 0 0 512 512" height="512" viewBox="0 0 512 512" width="512" xmlns="http://www.w3.org/2000/svg"><g id="XMLID_119_"><circle id="XMLID_1331_" cx="256" cy="256" fill="#9d9ae8" r="246"/><path id="XMLID_1360_" d="m429.948 82.052c-96.069-96.069-251.828-96.069-347.897 0-3.78 3.78-7.394 7.663-10.877 11.621-23.871 82.806 5.535 186.65 83.019 264.134s181.328 106.89 264.134 83.019c3.958-3.483 7.841-7.097 11.621-10.877 96.069-96.07 96.069-251.828 0-347.897z" fill="#b5b3ee"/><path id="XMLID_1359_" d="m429.948 82.052c-74.75-74.751-185.634-91.327-276.423-49.752-39.776 69.577-13.702 178.195 67.139 259.036s189.46 106.915 259.036 67.139c41.575-90.789 24.999-201.673-49.752-276.423z" fill="#cecdf3"/><ellipse id="XMLID_1328_" cx="358.128" cy="153.872" fill="#e6e6f9" rx="95.903" ry="176.333" transform="matrix(.707 -.707 .707 .707 -3.911 298.303)"/><ellipse id="XMLID_1327_" cx="374.794" cy="137.206" fill="#fff" rx="38" ry="80.872" transform="matrix(.707 -.707 .707 .707 12.755 305.206)"/><g id="XMLID_43_"><g id="XMLID_543_"><path id="XMLID_46_" d="m437.02 74.98c-48.353-48.351-112.64-74.98-181.02-74.98s-132.667 26.629-181.019 74.981-74.981 112.639-74.981 181.019 26.629 132.667 74.981 181.019 112.639 74.981 181.019 74.981 132.667-26.629 181.02-74.98c48.351-48.353 74.98-112.64 74.98-181.02s-26.629-132.667-74.98-181.02zm-150.593-52.901c49.929 6.437 98.181 28.774 136.45 67.044 37.137 37.136 60.357 84.473 67.078 135.69.902 13.938-.911 33.375-14.212 46.675-15.403 15.403-41.886 18.568-74.566 8.913-34.786-10.277-71.646-33.64-103.791-65.786-32.146-32.145-55.509-69.005-65.786-103.791-9.656-32.682-6.491-59.164 8.913-74.567 13.021-13.023 31.79-14.997 45.914-14.178zm-197.304 400.798c-78.146-78.146-89.91-197.904-35.324-288.597-6.115 78.746 28.011 165.285 93.323 230.598 60.312 60.312 138.709 94.033 212.37 94.029 6.115 0 12.197-.241 18.236-.71-90.694 54.591-210.458 42.828-288.605-35.32zm159.412-93.992c38.277 28.976 80.686 47.991 122.643 54.99 11.851 1.977 23.435 2.958 34.667 2.958 18.266 0 35.594-2.598 51.593-7.733-9.643 15.714-21.194 30.41-34.561 43.777-3.083 3.083-6.235 6.054-9.443 8.93-17.411 4.8-35.591 7.139-54.14 7.138-68.331-.004-141.485-31.666-198.029-88.21-71.896-71.895-103.554-170.618-81.068-252.174 2.875-3.206 5.845-6.357 8.926-9.438 13.468-13.468 28.179-24.949 43.758-34.475-8.271 25.816-9.942 55.086-4.756 86.176 6.999 41.958 26.016 84.367 54.993 122.645 1.967 2.598 4.956 3.965 7.98 3.965 2.103 0 4.223-.661 6.028-2.027 4.404-3.333 5.271-9.605 1.938-14.009-53.365-70.492-68.578-154.858-38.443-211.261 21.133-9.309 43.361-15.371 65.922-18.185-20.824 20.825-25.952 54.504-14.124 94.539 11.207 37.932 36.359 77.802 70.824 112.267s74.335 59.617 112.267 70.824c14.246 4.209 27.666 6.292 39.983 6.292 22.297 0 41.305-7.176 54.719-20.591-2.822 22.951-8.959 45.14-18.169 66.003-56.402 30.264-140.872 15.072-211.437-38.346-4.405-3.333-10.675-2.466-14.009 1.938-3.333 4.402-2.466 10.674 1.938 14.007z"/><path id="XMLID_585_" d="m340.853 171.147c16.293 16.293 34.754 28.688 51.984 34.902 8.084 2.916 15.609 4.363 22.371 4.363 9.74 0 17.896-3.004 23.842-8.949 10.073-10.073 11.702-26.485 4.587-46.213-6.214-17.23-18.609-35.692-34.901-51.984-16.293-16.293-34.754-28.688-51.984-34.902-19.728-7.115-36.14-5.486-46.213 4.586s-11.702 26.485-4.587 46.213c6.213 17.23 18.609 35.691 34.901 51.984zm-16.172-84.055c2.064-2.064 5.434-3.096 9.732-3.096 4.359 0 9.675 1.061 15.553 3.181 14.521 5.238 30.37 15.974 44.627 30.23 14.257 14.257 24.993 30.106 30.23 44.628 4.211 11.675 4.242 21.127.084 25.285-4.157 4.158-13.611 4.125-25.285-.084-14.521-5.238-30.37-15.974-44.627-30.23-14.257-14.257-24.993-30.106-30.23-44.628-4.211-11.676-4.243-21.128-.084-25.286z"/><path id="XMLID_586_" d="m220.67 281.34c-2.64 0-5.22 1.06-7.08 2.93-1.86 1.86-2.93 4.43-2.93 7.07 0 2.63 1.07 5.21 2.93 7.07s4.44 2.93 7.08 2.93c2.63 0 5.2-1.07 7.07-2.93 1.86-1.86 2.93-4.44 2.93-7.07 0-2.64-1.07-5.21-2.93-7.07-1.87-1.87-4.44-2.93-7.07-2.93z"/></g></g></g></svg>