<svg id="Layer_1" enable-background="new 0 0 512 512" height="512" viewBox="0 0 512 512" width="512" xmlns="http://www.w3.org/2000/svg"><g id="XMLID_1612_"><path id="XMLID_1443_" d="m37 298h438v204h-438z" fill="#a0c8ff"/><path id="XMLID_1362_" d="m37 10h438v88h-438z" fill="#e2e9ee"/><path id="XMLID_1334_" d="m37 98h438v200h-438z" fill="#ffda8f"/><g fill="#fff"><path id="XMLID_1332_" d="m372 178h-20v40h20c11.046 0 20-8.954 20-20 0-11.046-8.954-20-20-20z"/><path id="XMLID_1304_" d="m140 178h20v40h-20c-11.046 0-20-8.954-20-20 0-11.046 8.954-20 20-20z"/><path id="XMLID_1260_" d="m208 178h96v40h-96z"/></g><path id="XMLID_1259_" d="m328 250c-13.255 0-24-10.745-24-24v-56c0-13.255 10.745-24 24-24 13.255 0 24 10.745 24 24v56c0 13.255-10.745 24-24 24z" fill="#8aa8bd"/><path id="XMLID_1253_" d="m184 250c13.255 0 24-10.745 24-24v-56c0-13.255-10.745-24-24-24-13.255 0-24 10.745-24 24v56c0 13.255 10.745 24 24 24z" fill="#8aa8bd"/><g id="XMLID_491_"><path id="XMLID_580_" d="m475 0h-438c-5.522 0-10 4.478-10 10v492c0 5.522 4.478 10 10 10h438c5.522 0 10-4.478 10-10v-492c0-5.522-4.478-10-10-10zm-10 20v68h-418v-68zm-418 472v-184h164.063c5.522 0 10-4.478 10-10s-4.478-10-10-10h-164.063v-180h418v180h-163.937c-5.522 0-10 4.478-10 10s4.478 10 10 10h163.937v184z"/><path id="XMLID_588_" d="m97 64c2.63 0 5.21-1.07 7.069-2.931 1.861-1.859 2.931-4.439 2.931-7.069s-1.07-5.21-2.931-7.07c-1.859-1.861-4.439-2.93-7.069-2.93s-5.21 1.069-7.07 2.93-2.93 4.44-2.93 7.07 1.069 5.21 2.93 7.069c1.86 1.861 4.44 2.931 7.07 2.931z"/><path id="XMLID_592_" d="m141 64c2.63 0 5.21-1.07 7.069-2.931 1.861-1.859 2.931-4.439 2.931-7.069s-1.07-5.21-2.931-7.07c-1.859-1.861-4.439-2.93-7.069-2.93s-5.21 1.069-7.07 2.93-2.93 4.44-2.93 7.07 1.069 5.21 2.93 7.069c1.86 1.861 4.44 2.931 7.07 2.931z"/><path id="XMLID_593_" d="m185 64c2.63 0 5.2-1.07 7.069-2.931 1.861-1.859 2.931-4.439 2.931-7.069s-1.07-5.21-2.931-7.07c-1.859-1.861-4.439-2.93-7.069-2.93s-5.21 1.069-7.07 2.93-2.93 4.44-2.93 7.07 1.069 5.21 2.93 7.069c1.86 1.861 4.44 2.931 7.07 2.931z"/><path id="XMLID_596_" d="m328 260c18.076 0 32.897-14.18 33.937-32h10.063c16.542 0 30-13.458 30-30s-13.458-30-30-30h-10.063c-1.04-17.82-15.86-32-33.937-32s-32.897 14.18-33.937 32h-76.127c-1.04-17.82-15.86-32-33.937-32s-32.897 14.18-33.937 32h-10.062c-16.542 0-30 13.458-30 30s13.458 30 30 30h10.063c1.04 17.82 15.86 32 33.937 32s32.897-14.18 33.937-32h76.127c1.039 17.82 15.86 32 33.936 32zm54-62c0 5.514-4.486 10-10 10h-10v-20h10c5.514 0 10 4.486 10 10zm-68-28c0-7.72 6.28-14 14-14s14 6.28 14 14v56c0 7.72-6.28 14-14 14s-14-6.28-14-14zm-184 28c0-5.514 4.486-10 10-10h10v20h-10c-5.514 0-10-4.486-10-10zm68 28c0 7.72-6.28 14-14 14s-14-6.28-14-14v-56c0-7.72 6.28-14 14-14s14 6.28 14 14zm20-38h76v20h-76z"/><path id="XMLID_601_" d="m167.667 342h-78c-5.522 0-10 4.478-10 10s4.478 10 10 10h78c5.522 0 10-4.478 10-10s-4.478-10-10-10z"/><path id="XMLID_602_" d="m167.667 390h-78c-5.522 0-10 4.478-10 10s4.478 10 10 10h78c5.522 0 10-4.478 10-10s-4.478-10-10-10z"/><path id="XMLID_603_" d="m167.667 438h-78c-5.522 0-10 4.478-10 10s4.478 10 10 10h78c5.522 0 10-4.478 10-10s-4.478-10-10-10z"/><path id="XMLID_604_" d="m295 342h-78c-5.522 0-10 4.478-10 10s4.478 10 10 10h78c5.522 0 10-4.478 10-10s-4.478-10-10-10z"/><path id="XMLID_605_" d="m295 390h-78c-5.522 0-10 4.478-10 10s4.478 10 10 10h78c5.522 0 10-4.478 10-10s-4.478-10-10-10z"/><path id="XMLID_606_" d="m295 438h-78c-5.522 0-10 4.478-10 10s4.478 10 10 10h78c5.522 0 10-4.478 10-10s-4.478-10-10-10z"/><path id="XMLID_607_" d="m422.333 342h-78c-5.522 0-10 4.478-10 10s4.478 10 10 10h78c5.522 0 10-4.478 10-10s-4.478-10-10-10z"/><path id="XMLID_608_" d="m422.333 390h-78c-5.522 0-10 4.478-10 10s4.478 10 10 10h78c5.522 0 10-4.478 10-10s-4.478-10-10-10z"/><path id="XMLID_609_" d="m422.333 438h-78c-5.522 0-10 4.478-10 10s4.478 10 10 10h78c5.522 0 10-4.478 10-10s-4.478-10-10-10z"/><path id="XMLID_610_" d="m248.99 290.87c-1.86 1.859-2.931 4.43-2.931 7.069 0 2.63 1.07 5.21 2.931 7.07 1.859 1.86 4.439 2.93 7.069 2.93 2.641 0 5.21-1.069 7.07-2.93 1.87-1.87 2.93-4.44 2.93-7.07s-1.06-5.21-2.93-7.069c-1.86-1.87-4.43-2.931-7.07-2.931-2.629 0-5.209 1.061-7.069 2.931z"/></g></g></svg>