<svg id="Layer_1" enable-background="new 0 0 512 512" height="512" viewBox="0 0 512 512" width="512" xmlns="http://www.w3.org/2000/svg"><g id="XMLID_2036_"><g id="XMLID_2035_"><path id="XMLID_261_" d="m248.859 58.981c1.929-4.327 3.001-9.119 3.001-14.162-.001-19.23-15.59-34.819-34.82-34.819s-34.819 15.589-34.819 34.819c0 4.807.974 9.387 2.736 13.553z" fill="#ffcd69"/></g><g id="XMLID_2007_"><path id="XMLID_260_" d="m272.679 241.508c30.449-17.711 50.754-49.522 50.754-85.821 0-55.597-47.633-100.667-106.392-100.667s-106.392 45.07-106.392 100.667c0 36.297 20.303 68.107 50.749 85.818z" fill="#ffcd69"/></g><g id="XMLID_2008_"><path d="m227.029 132.436c14.785 17.785 37.076 29.108 62.011 29.108v34.261c0 39.764-32.236 72-72 72-39.764 0-72-32.235-72-72v-31.71c31.565 0 60.33-11.988 81.991-31.66z" fill="#ffdcd5"/></g><g id="XMLID_1975_"><path d="m25.04 502v-103.837c0-50.855 41.226-92.082 92.082-92.082h49.878c10.324 0 18.694-8.37 18.694-18.694v-26.367h62.694v26.367c0 10.324 8.37 18.694 18.694 18.694h49.878c50.855 0 92.082 41.226 92.082 92.082v103.837z" fill="#ffd0c7"/></g><g id="XMLID_1974_"><path id="XMLID_235_" d="m322.717 502 10.931-12.18c11.121-12.392 17.273-28.456 17.273-45.107 0-16.075-5.734-31.622-16.17-43.848-7.767-9.098-12.033-20.668-12.033-32.63v-61.925l-44.863.897c0 33.587-27.228 60.814-60.814 60.814s-60.814-27.228-60.814-60.814l-44.863.44v60.589c0 11.962-4.267 23.532-12.033 32.63-10.437 12.226-16.17 27.773-16.17 43.848 0 16.651 6.151 32.715 17.273 45.107l10.929 12.179z" fill="#9d9ae8"/></g><g id="XMLID_179_"><g id="XMLID_1185_"><path id="XMLID_234_" d="m487.04 478v-56c0-13.255-10.745-24-24-24h-30c-13.255 0-24 10.745-24 24v56c0 13.255 10.745 24 24 24h30c13.255 0 24-10.745 24-24z" fill="#85e5f8"/></g><g id="XMLID_277_"><path id="XMLID_233_" d="m350.707 414.667h46v70.666h-46z" fill="#e2e9ee" transform="matrix(0 1 -1 0 823.707 76.293)"/></g><g id="XMLID_276_"><path id="XMLID_182_" d="m338.375 478v-56c0-13.255-10.745-24-24-24h-29.576c-13.255 0-24 10.745-24 24v56c0 13.255 10.745 24 24 24h29.576c13.254 0 24-10.745 24-24z" fill="#85e5f8"/></g></g><g id="XMLID_262_"><path id="XMLID_267_" d="m25.041 433.085c-5.523 0-10 4.478-10 10v58.915c0 5.522 4.477 10 10 10s10-4.478 10-10v-58.915c0-5.522-4.478-10-10-10z"/><path id="XMLID_272_" d="m463.041 388h-30c-5.086 0-9.91 1.13-14.246 3.14-3.621-53.024-47.909-95.058-101.836-95.058h-49.877c-4.794 0-8.694-3.9-8.694-8.694v-20.814c7.823-4.588 14.815-10.433 20.709-17.259 34.05-20.419 54.335-55.294 54.335-93.626 0-46.219-29.958-85.904-72.376-102.441.525-2.758.803-5.57.803-8.427 0-24.716-20.105-44.821-44.818-44.821s-44.819 20.105-44.819 44.819c0 2.854.274 5.668.8 8.428-42.417 16.538-72.373 56.222-72.373 102.44 0 38.332 20.286 73.207 54.336 93.626 5.894 6.827 12.887 12.671 20.709 17.26v20.814c0 4.794-3.9 8.694-8.694 8.694h-49.877c-37.465 0-71.857 20.468-89.755 53.416-2.636 4.854-.839 10.925 4.014 13.561 1.517.824 3.152 1.215 4.765 1.215 3.547 0 6.983-1.892 8.796-5.229 11.839-21.792 32.648-36.787 56.422-41.431v50.62c0 9.574-3.423 18.856-9.639 26.138-11.972 14.023-18.565 31.901-18.565 50.341 0 19.146 7.042 37.537 19.83 51.785l10.931 12.181c1.976 2.201 4.705 3.321 7.446 3.321 2.378 0 4.766-.844 6.675-2.558 4.11-3.688 4.453-10.011.764-14.121l-10.931-12.182c-9.489-10.572-14.715-24.22-14.715-38.427 0-13.683 4.893-26.949 13.776-37.355 9.304-10.898 14.428-24.793 14.428-39.123v-52.152h25.439c4.383 34.87 34.199 61.938 70.238 61.938s65.855-27.068 70.238-61.938h25.438v52.152c0 6.793 1.165 13.484 3.367 19.809-.567-.028-1.137-.043-1.71-.043h-29.576c-18.748 0-34 15.252-34 34v56c0 18.748 15.252 34 34 34h29.576c17.049 0 31.204-12.614 33.629-29h51.407c2.426 16.386 16.58 29 33.629 29h30c18.748 0 34-15.252 34-34v-56c.001-18.747-15.251-33.999-33.999-33.999zm-64 10.163v18.837h-43.254c-3.159-8.227-7.723-15.943-13.43-22.629-6.216-7.28-9.639-16.563-9.639-26.137v-50.618c37.744 7.371 66.323 40.677 66.323 80.547zm-206.819-353.344c0-13.686 11.134-24.819 24.819-24.819s24.819 11.134 24.819 24.819c0 .913-.051 1.817-.147 2.712-7.955-1.639-16.208-2.511-24.672-2.511-8.463 0-16.715.871-24.669 2.51-.097-.894-.15-1.798-.15-2.711zm-71.574 110.869c0-49.994 43.241-90.667 96.392-90.667 53.15 0 96.392 40.673 96.392 90.667 0 17.529-5.257 34.194-14.81 48.412.275-2.728.418-5.495.418-8.294v-34.261c0-5.522-4.478-10-10-10-21.048 0-40.847-9.295-54.321-25.501-1.744-2.098-4.269-3.393-6.991-3.583-2.716-.2-5.402.739-7.422 2.573-20.635 18.74-47.365 29.062-75.267 29.062-5.523 0-10 4.478-10 10v31.71c0 2.799.143 5.566.418 8.294-9.551-14.219-14.809-30.884-14.809-48.412zm34.393 40.117v-22.086c25.951-1.958 50.65-11.509 71.153-27.512 14.418 13.901 32.953 22.596 52.847 24.788v24.81c0 34.187-27.813 62-62 62s-62-27.814-62-62zm62 162.216c-24.99 0-45.81-18.139-50.022-41.939 15.813-.01 28.675-12.878 28.675-28.694v-12.419c6.811 1.838 13.963 2.836 21.347 2.836s14.536-.998 21.347-2.836v12.419c0 15.816 12.862 28.684 28.676 28.694-4.213 23.8-25.033 41.939-50.023 41.939zm111.334 119.979c0 7.72-6.28 14-14 14h-29.576c-7.72 0-14-6.28-14-14v-56c0-7.72 6.28-14 14-14h29.576c7.72 0 14 6.28 14 14zm20-41h.013c.055.001 50.653 0 50.653 0v26h-50.666zm128.666 41c0 7.72-6.28 14-14 14h-30c-7.72 0-14-6.28-14-14v-56c0-7.72 6.28-14 14-14h30c7.72 0 14 6.28 14 14z"/><path id="XMLID_283_" d="m235.611 221.876c3.906-3.904 3.906-10.236.001-14.142-3.904-3.905-10.237-3.905-14.142-.001-2.443 2.441-6.417 2.441-8.859 0-3.905-3.904-10.237-3.904-14.142 0-3.905 3.906-3.905 10.237 0 14.143 5.121 5.12 11.844 7.68 18.571 7.68 6.725 0 13.452-2.561 18.571-7.68z"/><path id="XMLID_284_" d="m24.959 408.08c2.63 0 5.21-1.07 7.07-2.931 1.86-1.859 2.93-4.43 2.93-7.069 0-2.63-1.07-5.21-2.93-7.07s-4.44-2.93-7.07-2.93c-2.64 0-5.21 1.069-7.07 2.93-1.86 1.86-2.93 4.44-2.93 7.07 0 2.64 1.07 5.21 2.93 7.069 1.861 1.861 4.44 2.931 7.07 2.931z"/></g></g></svg>