<svg id="Layer_1" enable-background="new 0 0 512 512" height="512" viewBox="0 0 512 512" width="512" xmlns="http://www.w3.org/2000/svg"><g id="XMLID_1914_"><path id="XMLID_1846_" d="m96.441 153.259c-16.163 9.758-26.97 27.491-26.97 47.749v40.331 56.116c0 46.693 37.852 84.545 84.545 84.545h65.112 138.853c46.693 0 84.545-37.852 84.545-84.545v-186c.001-56.032-45.421-101.455-101.453-101.455h-143.177c-56.031 0-101.454 45.423-101.454 101.455v41.806z" fill="#ff7d95"/><path id="XMLID_1785_" d="m141.485 382h256v120h-256z" fill="#ffbecb"/><path id="XMLID_1211_" d="m219.485 422h100v40h-100z" fill="#e2e9ee"/><path id="XMLID_2652_" d="m293.485 382h-48v-44c0-13.255 10.745-24 24-24 13.255 0 24 10.745 24 24z" fill="#fff"/><g id="XMLID_679_"><path id="XMLID_708_" d="m442.527 240.996c-5.522 0-10 4.478-10 10v46.458c0 41.104-33.44 74.546-74.545 74.546h-54.498v-34c0-18.748-15.252-34-34-34s-34 15.252-34 34v34h-81.469c-41.104 0-74.545-33.441-74.545-74.546v-96.446c0-25.219 20.517-45.735 45.735-45.735h84.481c20.972 0 38.033 17.062 38.033 38.033s-17.062 38.033-38.033 38.033h-38.022c-5.523 0-10 4.478-10 10v62.661c0 5.522 4.477 10 10 10s10-4.478 10-10v-52.661h28.022c27.638 0 50.811-19.427 56.618-45.339h72.899c26.722 0 48.462-21.74 48.462-48.462v-39.518c0-5.522-4.478-10-10-10s-10 4.478-10 10v39.519c0 15.694-12.768 28.462-28.462 28.462h-71.959c-3.606-28.562-28.033-50.728-57.557-50.728h-84.481c-6.519 0-12.814.968-18.764 2.743v-26.562c0-50.428 41.026-91.454 91.455-91.454h143.177c50.428 0 91.454 41.026 91.454 91.454v49.547c0 5.522 4.478 10 10 10s10-4.478 10-10v-49.547c-.001-61.456-49.999-111.454-111.455-111.454h-143.177c-61.456 0-111.454 49.998-111.454 111.454v36.509c-16.336 11.971-26.971 31.285-26.971 53.044v96.446c0 44.37 30.725 81.692 72.014 91.826v112.721c0 5.522 4.477 10 10 10h256c5.522 0 10-4.478 10-10v-124.028c27.005-16.664 45.043-46.522 45.043-80.518v-46.458c-.001-5.522-4.478-10-10.001-10zm-187.042 97.004c0-7.72 6.28-14 14-14s14 6.28 14 14v34h-28zm131.999 154h-236v-100.035c.841.022 1.685.035 2.531.035h203.966c10.298 0 20.214-1.661 29.502-4.719v104.719z"/><path id="XMLID_715_" d="m319.484 412h-100c-5.523 0-10 4.478-10 10v40c0 5.522 4.477 10 10 10h100c5.522 0 10-4.478 10-10v-40c0-5.522-4.477-10-10-10zm-10 40h-80v-20h80z"/><path id="XMLID_716_" d="m442.529 196c-2.631 0-5.211 1.069-7.07 2.93-1.86 1.86-2.93 4.43-2.93 7.07 0 2.63 1.069 5.21 2.93 7.069 1.859 1.86 4.439 2.931 7.07 2.931 2.63 0 5.21-1.07 7.069-2.931 1.86-1.859 2.931-4.439 2.931-7.069s-1.07-5.21-2.931-7.07c-1.859-1.861-4.439-2.93-7.069-2.93z"/></g></g></svg>