<svg id="Layer_1" enable-background="new 0 0 512 512" height="512" viewBox="0 0 512 512" width="512" xmlns="http://www.w3.org/2000/svg"><g id="XMLID_62_"><g id="XMLID_190_"><g id="XMLID_189_"><path id="XMLID_79_" d="m279.159 109.342h-46.317v-36.175c0-12.79 10.368-23.159 23.159-23.159 12.79 0 23.159 10.368 23.159 23.159v36.175z" fill="#fff"/></g><g id="XMLID_1111_"><path id="XMLID_78_" d="m10 10.008h492v40h-492z" fill="#8aa8bd"/></g><g id="XMLID_1110_"><path id="XMLID_74_" d="m368.391 265.699h.01l-63.405-81.233c-16.743-21.451-25.837-47.882-25.837-75.094v-.03h-46.317c0 27.222-9.101 53.662-25.855 75.116l-62.852 80.486h.084c-21.01 25.42-33.51 58.126-33.136 93.76.821 78.194 66.917 143.288 144.917 143.288 81.063 0 144.925-64.104 144.925-144.844 0-34.681-12.199-66.511-32.534-91.449z" fill="#ffcd69"/></g><g id="XMLID_1109_"><path id="XMLID_65_" d="m298.653 265.699h.004l-24.063-81.233c-6.354-21.451-9.805-47.882-9.805-75.094v-.03h-17.578c0 27.222-3.454 53.662-9.812 75.116l-23.853 80.486h.032c-7.974 25.42-12.717 58.126-12.575 93.76.312 78.194 25.664 143.288 54.997 143.288 30.784 0 55-64.104 55-144.844 0-34.681-4.63-66.511-12.347-91.449z" fill="#ff5c7d"/></g></g><g id="XMLID_80_"><path id="XMLID_83_" d="m502 .008h-201c-5.522 0-10 4.477-10 10s4.478 10 10 10h191v20h-472v-20h191c5.522 0 10-4.477 10-10s-4.478-10-10-10h-201c-5.522 0-10 4.477-10 10v40c0 5.523 4.478 10 10 10h215.571c-1.752 4.037-2.729 8.485-2.729 13.159v36.175c0 24.869-8.43 49.36-23.737 68.961l-62.852 80.486c-.187.239-.36.484-.521.735-22.732 27.955-35.028 63.162-34.647 99.285.425 40.47 16.9 78.815 46.391 107.973 29.487 29.154 68.029 45.21 108.525 45.21 41.847 0 80.89-16.008 109.935-45.076 29.014-29.035 44.991-68.018 44.991-109.768 0-35.401-12.259-69.993-34.526-97.452-.038-.05-.076-.101-.115-.15l-63.405-81.233c-15.297-19.598-23.721-44.082-23.721-68.971v-36.175c0-4.674-.977-9.122-2.729-13.159h215.569c5.522 0 10-4.477 10-10v-40c0-5.523-4.478-10-10-10zm-246 491.984c-18.13 0-44.673-51.939-44.997-133.327-.132-33.177 4.171-65.397 12.117-90.727.093-.298.172-.598.236-.9l23.631-79.738c4.37-14.747 7.439-31.884 9.012-49.926 1.57 18.043 4.638 35.183 9.008 49.933l23.984 80.97c.034.126.07.252.109.378 7.673 24.799 11.9 56.226 11.9 88.493 0 37.905-5.436 73.119-15.307 99.154-8.472 22.348-19.572 35.69-29.693 35.69zm-134.918-133.393c-.334-31.816 10.619-62.814 30.845-87.283.305-.369.579-.755.823-1.156l62.118-79.546c7.493-9.595 13.567-20.193 18.132-31.395-1.404 7.939-3.136 15.473-5.189 22.399l-23.853 80.486c-.061.203-.113.407-.16.612-8.393 27.117-12.935 61.18-12.796 96.029.155 38.944 6.271 76.063 17.22 104.518 3.481 9.047 7.369 16.917 11.584 23.548-55.65-16.194-98.095-68.359-98.724-128.212zm176.031-167.98 63.158 80.917c.118.164.241.325.37.483 19.529 23.95 30.284 54.184 30.284 85.13 0 62.841-40.939 114.361-98.199 129.975 4.287-6.664 8.204-14.594 11.668-23.73 10.709-28.247 16.606-65.978 16.606-106.246 0-34.598-4.395-67.142-12.711-94.137-.014-.051-.028-.102-.044-.152l-24.063-81.233c-2.05-6.919-3.779-14.445-5.182-22.375 4.562 11.192 10.629 21.78 18.113 31.368zm-27.955-117.452v26.175h-26.316v-26.175c0-7.256 5.902-13.159 13.158-13.159s13.158 5.903 13.158 13.159z"/><path id="XMLID_87_" d="m256 20.008c2.63 0 5.21-1.07 7.069-2.93 1.86-1.86 2.931-4.44 2.931-7.07s-1.07-5.21-2.931-7.07c-1.859-1.86-4.439-2.93-7.069-2.93s-5.21 1.07-7.07 2.93-2.93 4.44-2.93 7.07 1.069 5.21 2.93 7.07 4.44 2.93 7.07 2.93z"/></g></g></svg>