<svg id="Layer_1" enable-background="new 0 0 512 512" height="512" viewBox="0 0 512 512" width="512" xmlns="http://www.w3.org/2000/svg"><g id="XMLID_92_"><path id="XMLID_1340_" d="m296 502h-80c-22.091 0-40-17.909-40-40v-252c0-22.091 17.909-40 40-40h80c22.091 0 40 17.909 40 40v252c0 22.091-17.909 40-40 40z" fill="#ff7d95"/><path id="XMLID_1576_" d="m176 453.917v8.083c0 22.091 17.909 40 40 40h80c22.091 0 40-17.909 40-40v-8.083z" fill="#6d92ac"/><path id="XMLID_1298_" d="m176 218.083v-8.083c0-22.091 17.909-40 40-40h80c22.091 0 40 17.909 40 40v8.083z" fill="#6d92ac"/><circle id="XMLID_1339_" cx="256" cy="319.667" fill="#ffcd69" r="22"/><g id="XMLID_909_"><path id="XMLID_925_" d="m302.098 160.385-31.058-55.904c11.223-5.56 18.96-17.131 18.96-30.481 0-15.268-10.118-28.217-24-32.497v-31.503c0-5.523-4.477-10-10-10s-10 4.477-10 10v31.503c-13.882 4.28-24 17.229-24 32.497 0 13.35 7.737 24.921 18.959 30.481l-31.058 55.904c-24.701 3.019-43.901 24.111-43.901 49.615v81.263c0 5.523 4.477 10 10 10s10-4.477 10-10v-63.179h140v215.833h-140v-62.653c0-5.523-4.477-10-10-10s-10 4.477-10 10v80.736c0 27.57 22.43 50 50 50h80c27.57 0 50-22.43 50-50v-252c0-25.504-19.2-46.596-43.902-49.615zm23.834 47.698h-19.932v-26.363c11.064 3.924 19.159 14.163 19.932 26.363zm-99.932-28.083h60v28.083h-60zm6.995-20 23.005-41.409 23.005 41.409zm23.005-100c7.72 0 14 6.28 14 14s-6.28 14-14 14-14-6.28-14-14 6.28-14 14-14zm-50 121.72v26.363h-19.932c.773-12.2 8.868-22.439 19.932-26.363zm90 310.28h-80c-15.898 0-28.94-12.432-29.932-28.083h139.865c-.993 15.651-14.035 28.083-29.933 28.083z"/><path id="XMLID_933_" d="m288 319.667c0-17.645-14.355-32-32-32s-32 14.355-32 32 14.355 32 32 32 32-14.355 32-32zm-44 0c0-6.617 5.383-12 12-12s12 5.383 12 12-5.383 12-12 12-12-5.384-12-12z"/><path id="XMLID_934_" d="m176.26 346.26c2.64 0 5.21-1.06 7.07-2.93 1.87-1.86 2.93-4.43 2.93-7.07 0-2.63-1.06-5.21-2.93-7.07-1.86-1.86-4.43-2.93-7.07-2.93-2.63 0-5.21 1.07-7.07 2.93s-2.93 4.44-2.93 7.07c0 2.64 1.07 5.21 2.93 7.07 1.86 1.87 4.44 2.93 7.07 2.93z"/></g></g></svg>