<svg id="Layer_1" enable-background="new 0 0 512 512" height="512" viewBox="0 0 512 512" width="512" xmlns="http://www.w3.org/2000/svg"><g id="XMLID_1497_"><g id="XMLID_723_"><path id="XMLID_841_" d="m98 356c-31.981 0-58 26.019-58 58s26.019 58 58 58 58-26.019 58-58-26.019-58-58-58zm0 96c-20.953 0-38-17.047-38-38s17.047-38 38-38 38 17.047 38 38-17.047 38-38 38z"/><path id="XMLID_850_" d="m502 88h-306.506c-5.026-49.358-46.832-88-97.494-88-54.037 0-98 43.962-98 98v316c0 54.038 43.963 98 98 98h199c5.522 0 10-4.477 10-10s-4.478-10-10-10h-139.743c23.526-17.917 38.743-46.213 38.743-78v-306h296v384h-105c-5.522 0-10 4.477-10 10s4.478 10 10 10h115c5.522 0 10-4.477 10-10v-404c0-5.523-4.478-10-10-10zm-404 404c-43.01 0-78-34.991-78-78s34.99-78 78-78 78 34.991 78 78-34.99 78-78 78zm0-176c-31.787 0-60.083 15.216-78 38.743v-256.743c0-43.009 34.99-78 78-78s78 34.991 78 78v256.743c-17.917-23.527-46.213-38.743-78-38.743z"/><path id="XMLID_852_" d="m98 404c-2.63 0-5.21 1.07-7.07 2.93s-2.93 4.44-2.93 7.07 1.069 5.21 2.93 7.07 4.44 2.93 7.07 2.93 5.21-1.07 7.069-2.93c1.86-1.86 2.931-4.44 2.931-7.07s-1.07-5.21-2.931-7.07c-1.859-1.86-4.439-2.93-7.069-2.93z"/><path id="XMLID_853_" d="m342 492c-2.63 0-5.21 1.07-7.07 2.93s-2.93 4.44-2.93 7.07 1.069 5.21 2.93 7.07 4.44 2.93 7.07 2.93 5.21-1.07 7.069-2.93c1.86-1.86 2.931-4.44 2.931-7.07s-1.07-5.21-2.931-7.07c-1.859-1.86-4.439-2.93-7.069-2.93z"/></g></g></svg>