<svg id="Layer_1" enable-background="new 0 0 512 512" height="512" viewBox="0 0 512 512" width="512" xmlns="http://www.w3.org/2000/svg"><g id="XMLID_93_"><g id="XMLID_816_"><path id="XMLID_982_" d="m478 354.176v-206.176c0-76.093-61.907-138-138-138s-138 61.907-138 138v216c0 16.542-13.458 30-30 30s-30-13.458-30-30v-206.176c19.937-8.269 34-27.932 34-50.824v-75c0-5.523-4.477-10-10-10h-18.275c-4.21-12.761-16.238-22-30.391-22h-58.667c-14.154 0-26.182 9.239-30.392 22h-18.275c-5.523 0-10 4.477-10 10v75c0 22.893 14.063 42.556 34 50.824v206.176c0 76.093 61.907 138 138 138s138-61.907 138-138v-216c0-16.542 13.458-30 30-30s30 13.458 30 30v206.176c-19.937 8.269-34 27.932-34 50.824v75c0 5.523 4.477 10 10 10h18.275c4.21 12.761 16.238 22 30.391 22h58.667c14.153 0 26.182-9.239 30.391-22h18.276c5.523 0 10-4.477 10-10v-75c0-22.893-14.063-42.556-34-50.824zm-419.333-334.176h58.667c6.615 0 11.997 5.381 12 11.995v.005s0 .003 0 .005c-.003 6.614-5.385 11.995-12 11.995h-58.667c-6.615 0-11.997-5.381-12-11.995 0-.002 0-.003 0-.005s0-.003 0-.005c.002-6.614 5.384-11.995 12-11.995zm-38.667 87v-65h8.275c4.21 12.761 16.238 22 30.391 22h58.667c14.153 0 26.182-9.239 30.391-22h8.276v65c0 19.299-15.701 35-35 35h-66c-19.299 0-35-15.701-35-35zm370 243v-202c0-27.57-22.43-50-50-50s-50 22.43-50 50v216c0 65.065-52.935 118-118 118s-118-52.935-118-118v-200.461h24v200.461c0 51.832 42.168 94 94 94s94-42.168 94-94v-62.937c0-5.523-4.477-10-10-10s-10 4.477-10 10v62.937c0 40.804-33.196 74-74 74s-74-33.196-74-74v-200.461h24v200.461c0 27.57 22.43 50 50 50s50-22.43 50-50v-216c0-65.065 52.935-118 118-118s118 52.935 118 118v202h-24v-202c0-51.832-42.168-94-94-94s-94 42.168-94 94v63.063c0 5.523 4.477 10 10 10s10-4.477 10-10v-63.063c0-40.804 33.196-74 74-74s74 33.196 74 74v202zm63.333 142h-58.667c-6.615 0-11.997-5.381-12-11.995 0-.002 0-.003 0-.005s0-.003 0-.005c.003-6.614 5.385-11.995 12-11.995h58.667c6.615 0 11.997 5.381 12 11.995v.005s0 .003 0 .005c-.002 6.614-5.385 11.995-12 11.995zm38.667-22h-8.275c-4.21-12.761-16.238-22-30.391-22h-58.667c-14.153 0-26.182 9.239-30.391 22h-8.276v-65c0-19.299 15.701-35 35-35h66c19.299 0 35 15.701 35 35z"/><path id="XMLID_1027_" d="m256.19 246.06c-2.63 0-5.21 1.07-7.07 2.93s-2.93 4.44-2.93 7.07c0 2.64 1.07 5.21 2.93 7.07 1.86 1.87 4.44 2.93 7.07 2.93s5.21-1.06 7.07-2.93c1.86-1.86 2.93-4.43 2.93-7.07 0-2.63-1.07-5.21-2.93-7.07s-4.44-2.93-7.07-2.93z"/></g></g></svg>