<svg id="Layer_1" enable-background="new 0 0 512 512" height="512" viewBox="0 0 512 512" width="512" xmlns="http://www.w3.org/2000/svg"><g id="XMLID_1239_"><g id="XMLID_1026_"><path id="XMLID_1382_" d="m467.782 428.373v-102.373c0-20.953-17.047-38-38-38h-59.574c-5.239-9.527-15.373-16-26.992-16h-174.432c-11.619 0-21.753 6.473-26.992 16h-59.574c-20.953 0-38 17.047-38 38v102.373c-24.75 2.975-44 24.089-44 49.627v24c0 5.523 4.478 10 10 10h144c5.522 0 10-4.477 10-10v-24c0-25.539-19.25-46.652-44-49.627v-64.373h21.574c5.239 9.527 15.373 16 26.992 16h174.432c11.619 0 21.753-6.473 26.992-16h21.574v64.373c-24.75 2.975-44 24.089-44 49.627v24c0 5.523 4.478 10 10 10h144c5.522 0 10-4.477 10-10v-24c0-25.539-19.25-46.652-44-49.627zm-323.564 49.627v14h-124v-14c0-16.542 13.458-30 30-30h64c16.542 0 30 13.458 30 30zm-34-134c-5.522 0-10 4.477-10 10v74h-36v-102c0-9.925 8.075-18 18-18h55.782v36zm232.998 16h-174.432c-5.946 0-10.784-4.838-10.784-10.785v-46.431c0-5.947 4.838-10.785 10.784-10.785h11.216v31.54c0 5.523 4.478 10 10 10s10-4.477 10-10v-31.539h24v31.54c0 5.523 4.478 10 10 10s10-4.477 10-10v-31.54h24v31.54c0 5.523 4.478 10 10 10s10-4.477 10-10v-31.54h24v31.54c0 5.523 4.478 10 10 10s10-4.477 10-10v-31.54h11.216c5.946 0 10.784 4.838 10.784 10.785v46.431c0 5.946-4.838 10.784-10.784 10.784zm30.784-16v-36h55.782c9.925 0 18 8.075 18 18v102h-36v-74c0-5.523-4.478-10-10-10zm117.782 148h-124v-14c0-16.542 13.458-30 30-30h64c16.542 0 30 13.458 30 30z"/><path id="XMLID_1489_" d="m467.782 156.373v-102.373c0-20.953-17.047-38-38-38h-59.574c-5.239-9.527-15.373-16-26.992-16h-174.432c-11.619 0-21.753 6.473-26.992 16h-59.574c-20.953 0-38 17.047-38 38v102.373c-24.75 2.975-44 24.089-44 49.627v24c0 5.523 4.478 10 10 10h144c5.522 0 10-4.477 10-10v-24c0-25.539-19.25-46.652-44-49.627v-64.373h21.574c5.239 9.527 15.373 16 26.992 16h42.343c5.522 0 10-4.477 10-10s-4.478-10-10-10h-42.343c-5.946 0-10.784-4.838-10.784-10.785v-46.43c0-5.947 4.838-10.785 10.784-10.785h11.216v31.54c0 5.523 4.478 10 10 10s10-4.477 10-10v-31.54h24v31.54c0 5.523 4.478 10 10 10s10-4.477 10-10v-31.54h24v31.54c0 5.523 4.478 10 10 10s10-4.477 10-10v-31.54h24v31.54c0 5.523 4.478 10 10 10s10-4.477 10-10v-31.54h11.216c5.946 0 10.784 4.838 10.784 10.785v46.431c0 5.946-4.838 10.784-10.784 10.784h-42.089c-5.522 0-10 4.477-10 10s4.478 10 10 10h42.089c11.619 0 21.753-6.473 26.992-16h21.574v64.373c-24.75 2.975-44 24.089-44 49.627v24c0 5.523 4.478 10 10 10h144c5.522 0 10-4.477 10-10v-24c0-25.539-19.25-46.652-44-49.627zm-323.564 49.627v14h-124v-14c0-16.542 13.458-30 30-30h64c16.542 0 30 13.458 30 30zm-34-134c-5.522 0-10 4.477-10 10v74h-36v-102c0-9.925 8.075-18 18-18h55.782v36zm263.782 0v-36h55.782c9.925 0 18 8.075 18 18v102h-36v-74c0-5.523-4.478-10-10-10zm117.782 148h-124v-14c0-16.542 13.458-30 30-30h64c16.542 0 30 13.458 30 30z"/><path id="XMLID_1500_" d="m263.2 105.07c1.859-1.86 2.93-4.44 2.93-7.07s-1.07-5.21-2.93-7.07-4.44-2.93-7.07-2.93c-2.64 0-5.21 1.07-7.07 2.93-1.87 1.86-2.93 4.44-2.93 7.07s1.06 5.21 2.93 7.07c1.86 1.86 4.431 2.93 7.07 2.93 2.63 0 5.21-1.07 7.07-2.93z"/></g></g></svg>