<svg id="Layer_1" enable-background="new 0 0 512 512" height="512" viewBox="0 0 512 512" width="512" xmlns="http://www.w3.org/2000/svg"><g id="XMLID_1421_"><g id="XMLID_1285_"><path id="XMLID_1287_" d="m57.069 243.07c1.861-1.86 2.931-4.44 2.931-7.07s-1.07-5.21-2.931-7.07c-1.859-1.86-4.439-2.93-7.069-2.93s-5.21 1.07-7.07 2.93-2.93 4.44-2.93 7.07 1.069 5.21 2.93 7.07 4.44 2.93 7.07 2.93 5.21-1.07 7.069-2.93z"/><path id="XMLID_1395_" d="m77.845 118h110.311c5.522 0 10-4.477 10-10s-4.478-10-10-10h-110.311c-5.522 0-10 4.477-10 10s4.477 10 10 10z"/><path id="XMLID_1414_" d="m77.845 74h110.311c5.522 0 10-4.477 10-10s-4.478-10-10-10h-110.311c-5.522 0-10 4.477-10 10s4.477 10 10 10z"/><path id="XMLID_1416_" d="m77.845 374h110.311c5.522 0 10-4.477 10-10s-4.478-10-10-10h-110.311c-5.522 0-10 4.477-10 10s4.477 10 10 10z"/><path id="XMLID_1417_" d="m77.845 418h110.311c5.522 0 10-4.477 10-10s-4.478-10-10-10h-110.311c-5.522 0-10 4.477-10 10s4.477 10 10 10z"/><path id="XMLID_1419_" d="m77.845 162h110.311c5.522 0 10-4.477 10-10s-4.478-10-10-10h-110.311c-5.522 0-10 4.477-10 10s4.477 10 10 10z"/><path id="XMLID_1434_" d="m502 0h-492c-5.522 0-10 4.477-10 10v492c0 5.523 4.478 10 10 10h40c5.522 0 10-4.477 10-10v-30h146v30c0 5.523 4.478 10 10 10h80c5.522 0 10-4.477 10-10v-30h146v30c0 5.523 4.478 10 10 10h40c5.522 0 10-4.477 10-10v-492c0-5.523-4.478-10-10-10zm-482 20h226v63c0 5.523 4.478 10 10 10s10-4.477 10-10v-63h226v432h-226v-279c0-5.523-4.478-10-10-10s-10 4.477-10 10v279h-226zm20 472h-20v-20h20zm186-20h20v20h-20zm60 20h-20v-20h20zm206 0h-20v-20h20z"/><path id="XMLID_1444_" d="m296 246c2.63 0 5.21-1.07 7.069-2.93 1.86-1.86 2.931-4.44 2.931-7.07s-1.07-5.21-2.931-7.07c-1.859-1.86-4.439-2.93-7.069-2.93s-5.21 1.07-7.07 2.93-2.93 4.44-2.93 7.07 1.069 5.21 2.93 7.07 4.44 2.93 7.07 2.93z"/><path id="XMLID_1445_" d="m323.845 118h110.311c5.522 0 10-4.477 10-10s-4.478-10-10-10h-110.311c-5.522 0-10 4.477-10 10s4.477 10 10 10z"/><path id="XMLID_1448_" d="m323.845 74h110.311c5.522 0 10-4.477 10-10s-4.478-10-10-10h-110.311c-5.522 0-10 4.477-10 10s4.477 10 10 10z"/><path id="XMLID_1449_" d="m323.845 374h110.311c5.522 0 10-4.477 10-10s-4.478-10-10-10h-110.311c-5.522 0-10 4.477-10 10s4.477 10 10 10z"/><path id="XMLID_1450_" d="m323.845 418h110.311c5.522 0 10-4.477 10-10s-4.478-10-10-10h-110.311c-5.522 0-10 4.477-10 10s4.477 10 10 10z"/><path id="XMLID_1455_" d="m323.845 162h110.311c5.522 0 10-4.477 10-10s-4.478-10-10-10h-110.311c-5.522 0-10 4.477-10 10s4.477 10 10 10z"/><path id="XMLID_1471_" d="m256.13 138c2.63 0 5.21-1.07 7.07-2.93 1.859-1.86 2.93-4.44 2.93-7.07s-1.07-5.21-2.93-7.07-4.44-2.93-7.07-2.93-5.21 1.07-7.08 2.93c-1.86 1.86-2.92 4.44-2.92 7.07s1.06 5.21 2.92 7.07c1.87 1.86 4.45 2.93 7.08 2.93z"/></g></g></svg>