<svg id="Layer_1" enable-background="new 0 0 512 512" height="512" viewBox="0 0 512 512" width="512" xmlns="http://www.w3.org/2000/svg"><g id="XMLID_1898_"><g id="XMLID_287_"><path id="XMLID_340_" d="m430 70.757v-60.757c0-5.522-4.477-10-10-10h-328c-5.523 0-10 4.478-10 10v60.757c-25.813 36.043-40 80.096-40 124.444v306.799c0 5.522 4.477 10 10 10h176c5.523 0 10-4.478 10-10v-219c0-29.346 6.182-58.453 18-85.224 11.818 26.771 18 55.878 18 85.224v219c0 5.522 4.477 10 10 10h176c5.523 0 10-4.478 10-10v-306.799c0-44.348-14.187-88.4-40-124.444zm-32 13.243h16.871c18.904 26.978 30.696 58.759 34.1 91.492l-23.315-15.208c-17.318-11.295-27.656-30.381-27.656-51.055zm-300.871 0h16.871v25.229c0 20.675-10.338 39.761-27.656 51.056l-23.315 15.207c3.404-32.733 15.196-64.514 34.1-91.492zm-35.129 193.528c22.815 22.677 36 53.761 36 86.464v128.008h-36zm202.732-107.02c-1.767-3.165-5.107-5.126-8.732-5.126s-6.965 1.961-8.732 5.126c-19.147 34.305-29.268 73.205-29.268 112.492v209h-100v-128.008c0-44.37-20.843-86.188-56-112.924v-51.026l35.271-23.006c22.999-15 36.729-40.349 36.729-67.808v-25.228h77.294c5.523 0 10-4.478 10-10s-4.477-10-10-10h-109.294v-44h308v44h-108.706c-5.523 0-10 4.478-10 10s4.477 10 10 10h76.706v25.229c0 27.459 13.73 52.808 36.729 67.808l35.271 23.005v51.026c-35.157 26.736-56 68.554-56 112.924v128.008h-100v-209c0-39.287-10.121-78.187-29.268-112.492zm149.268 321.492v-128.008c0-32.703 13.185-63.787 36-86.464v214.472z"/><path id="XMLID_345_" d="m256.29 64.17c-2.63 0-5.21 1.06-7.07 2.93-1.86 1.86-2.93 4.431-2.93 7.07 0 2.63 1.07 5.21 2.93 7.07 1.86 1.859 4.44 2.93 7.07 2.93 2.64 0 5.21-1.07 7.08-2.93 1.86-1.87 2.92-4.44 2.92-7.07s-1.06-5.21-2.92-7.07c-1.87-1.871-4.44-2.93-7.08-2.93z"/></g></g></svg>