<svg id="Layer_1" enable-background="new 0 0 512 512" height="512" viewBox="0 0 512 512" width="512" xmlns="http://www.w3.org/2000/svg"><g id="XMLID_105_"><g id="XMLID_285_"><path id="XMLID_524_" d="m321.501 70c0-16.542-13.458-30-30-30h-71c-16.542 0-30 13.458-30 30s13.458 30 30 30h71c16.542 0 30-13.458 30-30zm-111 0c0-5.514 4.486-10 10-10h71c5.514 0 10 4.486 10 10s-4.486 10-10 10h-71c-5.514 0-10-4.486-10-10z"/><path id="XMLID_531_" d="m463.215 374.846c-5.397-1.172-10.722 2.251-11.895 7.649-9.216 42.419-32.496 81.171-65.705 109.505h-259.229c-44.697-38.103-70.257-93.343-70.257-152.127 0-110.21 89.663-199.873 199.872-199.873 93.389 0 175.533 66.133 195.32 157.249 1.172 5.396 6.495 8.824 11.895 7.65 5.397-1.172 8.822-6.497 7.65-11.894-9.514-43.809-32.605-83.998-65.562-114.534l-34.12-134.245c-6.617-26.039-30.004-44.226-56.872-44.226h-116.62c-26.868 0-50.255 18.187-56.874 44.227l-34.123 134.258c-2.084 1.931-4.146 3.894-6.166 5.914-41.529 41.529-64.4 96.744-64.4 155.474 0 65.968 29.257 127.876 80.27 169.85 1.79 1.473 4.036 2.278 6.354 2.278h266.497c2.318 0 4.564-.805 6.354-2.278 38.115-31.362 64.843-75.038 75.259-122.981 1.174-5.398-2.251-10.723-7.648-11.896zm-303.013-325.693c4.362-17.165 19.778-29.153 37.489-29.153h116.62c17.711 0 33.127 11.988 37.49 29.153l27.644 108.766c-36.232-24.562-79.389-37.919-123.444-37.919-44.67 0-87.299 13.244-123.427 37.852z"/><path id="XMLID_532_" d="m171.7 374.368c-2.138 3.055-2.399 7.045-.677 10.353s5.141 5.381 8.87 5.381h50.388c5.523 0 10-4.477 10-10s-4.477-10-10-10h-31.126c5.246-7.452 12.919-18.35 24.109-34.235 6.662-9.458 12.826-19.765 12.826-31.05 0-19.136-16.166-35.302-35.302-35.302-16.831 0-31.399 11.974-34.639 28.47-1.064 5.419 2.466 10.675 7.885 11.74 5.417 1.065 10.675-2.466 11.74-7.885 1.403-7.142 7.717-12.325 15.014-12.325 8.758 0 15.302 8.079 15.302 15.302 0 5.731-4.639 13.09-9.177 19.532-31.619 44.886-35.181 49.973-35.213 50.019z"/><path id="XMLID_538_" d="m269.059 306.712v45.154c0 21.083 17.152 38.235 38.235 38.235s38.235-17.152 38.235-38.235v-45.154c0-21.083-17.152-38.235-38.235-38.235s-38.235 17.152-38.235 38.235zm56.47 0v45.154c0 10.055-8.18 18.235-18.235 18.235s-18.235-8.18-18.235-18.235v-45.154c0-10.055 8.18-18.235 18.235-18.235s18.235 8.18 18.235 18.235z"/><path id="XMLID_539_" d="m472.941 332.8c-1.86-1.86-4.44-2.93-7.07-2.93s-5.21 1.07-7.07 2.93-2.93 4.44-2.93 7.07c0 2.64 1.07 5.21 2.93 7.07 1.86 1.87 4.44 2.93 7.07 2.93 2.64 0 5.21-1.06 7.07-2.93 1.87-1.86 2.93-4.43 2.93-7.07 0-2.63-1.059-5.21-2.93-7.07z"/></g></g></svg>