<svg id="Layer_1" enable-background="new 0 0 512 512" height="512" viewBox="0 0 512 512" width="512" xmlns="http://www.w3.org/2000/svg"><g id="XMLID_28_"><g id="XMLID_372_"><path id="XMLID_394_" d="m97.333 202h56c5.523 0 10-4.478 10-10v-56c0-5.522-4.477-10-10-10h-56c-5.523 0-10 4.478-10 10v56c0 5.522 4.478 10 10 10zm10-56h36v36h-36z"/><path id="XMLID_429_" d="m97.333 314h56c5.523 0 10-4.478 10-10v-56c0-5.522-4.477-10-10-10h-56c-5.523 0-10 4.478-10 10v56c0 5.522 4.478 10 10 10zm10-56h36v36h-36z"/><path id="XMLID_432_" d="m464.793 348h-33.587c-10.126 0-19.51 3.216-27.207 8.665v-286.665c0-27.57-22.43-50-50-50h-65.029c-5.345-11.781-17.212-20-30.97-20h-112c-13.758 0-25.625 8.219-30.971 20h-65.029c-27.57 0-50 22.43-50 50v392c0 27.57 22.43 50 50 50h304c15.925 0 30.123-7.492 39.286-19.126 8.61 11.596 22.401 19.126 37.921 19.126h33.587c26.03 0 47.207-21.177 47.207-47.206v-69.588c-.001-26.029-21.178-47.206-47.208-47.206zm-180.793 60h100v44h-100zm100-338v318h-20v-318c0-5.522-4.477-10-10-10h-62v-20h62c16.542 0 30 13.458 30 30zm-238-50h112c7.72 0 14 6.28 14 14v32c0 7.72-6.28 14-14 14h-112c-7.72 0-14-6.28-14-14v-32c0-7.72 6.28-14 14-14zm-126 442v-392c0-16.542 13.458-30 30-30h62v20h-62c-5.523 0-10 4.478-10 10v151c0 5.522 4.477 10 10 10s10-4.478 10-10v-141h55.029c5.347 11.781 17.214 20 30.971 20h112c13.758 0 25.625-8.219 30.971-20h55.029v308h-60.55c-1.133-7.365-3.984-14.166-8.115-20h31.331c5.523 0 10-4.478 10-10s-4.477-10-10-10h-102.873c-17.152 0-32.193 9.197-40.46 22.916v-10.916c0-5.522-4.477-10-10-10h-56c-5.523 0-10 4.478-10 10v56c0 5.522 4.477 10 10 10h56c1.141 0 2.232-.2 3.253-.552v26.552h-96.586v-141c0-5.522-4.477-10-10-10s-10 4.478-10 10v151c0 5.522 4.477 10 10 10h107.137c1.133 7.365 3.984 14.166 8.115 20h-115.252c-16.542 0-30-13.458-30-30zm123.333-92v36h-36v-36zm60.46 122c-15.002 0-27.207-12.204-27.207-27.206v-69.588c0-15.002 12.205-27.206 27.207-27.206h33c15.002 0 27.207 12.204 27.207 27.206v69.588c0 15.002-12.205 27.206-27.207 27.206zm150.207 0h-78.665c4.131-5.834 6.982-12.635 8.115-20h98.83c-4.128 11.639-15.244 20-28.28 20zm138-27.206c0 15.002-12.205 27.206-27.207 27.206h-33.587c-15.001 0-27.206-12.204-27.206-27.206v-69.588c0-15.002 12.205-27.206 27.207-27.206h33.587c15.001 0 27.206 12.204 27.206 27.206z"/><path id="XMLID_440_" d="m205.667 202h101c5.523 0 10-4.478 10-10s-4.477-10-10-10h-101c-5.523 0-10 4.478-10 10s4.477 10 10 10z"/><path id="XMLID_441_" d="m205.667 146h101c5.523 0 10-4.478 10-10s-4.477-10-10-10h-101c-5.523 0-10 4.478-10 10s4.477 10 10 10z"/><path id="XMLID_442_" d="m205.667 314h101c5.523 0 10-4.478 10-10s-4.477-10-10-10h-101c-5.523 0-10 4.478-10 10s4.477 10 10 10z"/><path id="XMLID_443_" d="m205.667 258h101c5.523 0 10-4.478 10-10s-4.477-10-10-10h-101c-5.523 0-10 4.478-10 10s4.477 10 10 10z"/><path id="XMLID_444_" d="m50 276c2.63 0 5.21-1.07 7.07-2.931 1.86-1.859 2.93-4.439 2.93-7.069s-1.07-5.21-2.93-7.07-4.44-2.93-7.07-2.93-5.21 1.069-7.07 2.93c-1.86 1.86-2.93 4.44-2.93 7.07s1.07 5.21 2.93 7.069c1.86 1.861 4.44 2.931 7.07 2.931z"/></g></g></svg>