<svg id="Layer_1" enable-background="new 0 0 512 512" height="512" viewBox="0 0 512 512" width="512" xmlns="http://www.w3.org/2000/svg"><g id="XMLID_1841_"><g id="XMLID_395_"><path id="XMLID_451_" d="m502 76c5.523 0 10-4.478 10-10v-56c0-5.522-4.477-10-10-10h-492c-5.523 0-10 4.478-10 10v56c0 5.522 4.477 10 10 10h64v44h-24c-27.57 0-50 22.43-50 50v292c0 27.57 22.43 50 50 50h412c27.57 0 50-22.43 50-50v-292c0-27.57-22.43-50-50-50h-24v-44zm-482-56h472v36h-190.937c-5.523 0-10 4.478-10 10s4.477 10 10 10h72.937v44h-236v-44h73.063c5.523 0 10-4.478 10-10s-4.477-10-10-10h-191.063zm74 56h24v44h-24zm398 94v292c0 16.542-13.458 30-30 30h-412c-16.542 0-30-13.458-30-30v-292c0-16.542 13.458-30 30-30h412c16.542 0 30 13.458 30 30zm-74-50h-24v-44h24z"/><path id="XMLID_455_" d="m417.123 187.589c-1.087-5.33-5.64-9.268-11.071-9.574-5.429-.296-10.398 3.094-12.078 8.268-.038.115-.073.23-.105.347l-16.708 58.612-17.323-58.715c-.035-.118-.072-.235-.111-.353-1.732-5.16-6.734-8.522-12.166-8.146-5.431.363-9.942 4.351-10.971 9.695-.007.038-.014.075-.021.113l-15.467 85.695c-.981 5.436 2.629 10.637 8.064 11.617 5.438.983 10.636-2.629 11.617-8.064l9.458-52.403 15.574 52.789c.035.119.073.237.112.355 1.644 4.894 6.206 8.17 11.363 8.17h.062c5.182-.026 9.74-3.356 11.341-8.285.037-.115.072-.231.105-.348l15.038-52.75 10.047 52.572c1.037 5.425 6.278 8.98 11.699 7.945 5.425-1.037 8.982-6.274 7.945-11.699l-16.382-85.722c-.006-.038-.014-.079-.022-.119z"/><path id="XMLID_456_" d="m132.293 285.996c28.251 0 47.983-22.206 47.983-54 0-5.522-4.477-10-10-10h-26.325c-5.523 0-10 4.478-10 10s4.477 10 10 10h15.307c-2.633 12.548-10.632 24-26.965 24-18.748 0-34-15.252-34-34s15.252-34 34-34c6.814 0 13.385 2.006 19.002 5.801 4.578 3.092 10.793 1.888 13.884-2.688 3.092-4.576 1.888-10.792-2.688-13.884-8.937-6.037-19.379-9.229-30.199-9.229-29.776 0-54 24.225-54 54s24.226 54 54.001 54z"/><path id="XMLID_457_" d="m240.717 234.009-.103 41.963c-.014 5.522 4.453 10.011 9.976 10.024h.025c5.511 0 9.986-4.461 10-9.976l.103-41.996 26.266-40.35c3.013-4.629 1.703-10.824-2.925-13.837-4.627-3.014-10.823-1.703-13.836 2.925l-19.51 29.972-19.723-30.205c-3.02-4.626-9.217-5.928-13.84-2.906-4.625 3.02-5.925 9.216-2.906 13.84z"/><path id="XMLID_460_" d="m386.5 308h-33.587c-23.58 0-43.177 17.379-46.657 40h-101.099c-3.48-22.621-23.077-40-46.657-40h-33c-26.03 0-47.207 21.177-47.207 47.206v69.588c0 26.029 21.177 47.206 47.207 47.206h33c23.58 0 43.177-17.379 46.657-40h101.099c3.48 22.621 23.077 40 46.657 40h33.587c26.03 0 47.207-21.177 47.207-47.206v-69.588c0-26.029-21.177-47.206-47.207-47.206zm-200.793 116.794c0 15.002-12.205 27.206-27.207 27.206h-33c-15.002 0-27.207-12.204-27.207-27.206v-69.588c0-15.002 12.205-27.206 27.207-27.206h33c15.002 0 27.207 12.204 27.207 27.206zm20-56.794h100v44h-100zm208 56.794c0 15.002-12.205 27.206-27.207 27.206h-33.587c-15.002 0-27.207-12.204-27.207-27.206v-69.588c0-15.002 12.205-27.206 27.207-27.206h33.587c15.002 0 27.207 12.204 27.207 27.206z"/><path id="XMLID_463_" d="m256.06 76.06c2.64 0 5.21-1.06 7.08-2.93 1.86-1.86 2.92-4.44 2.92-7.07s-1.06-5.21-2.92-7.069c-1.87-1.86-4.44-2.931-7.08-2.931-2.63 0-5.21 1.07-7.07 2.931-1.86 1.859-2.93 4.439-2.93 7.069s1.07 5.21 2.93 7.07c1.86 1.87 4.44 2.93 7.07 2.93z"/></g></g></svg>