<svg id="Layer_1" enable-background="new 0 0 512 512" height="512" viewBox="0 0 512 512" width="512" xmlns="http://www.w3.org/2000/svg"><g id="XMLID_121_"><g id="XMLID_421_"><path id="XMLID_496_" d="m454 444h-111v-50h105c5.522 0 10-4.478 10-10v-29.5c0-24.537-19.963-44.5-44.5-44.5h-70.5v-150h24v49c0 10.477 8.523 19 19 19h41c10.477 0 19-8.523 19-19v-49.5h34c5.522 0 10-4.478 10-10v-47c0-5.522-4.478-10-10-10h-34v-49.5c0-10.477-8.523-19-19-19h-41c-10.477 0-19 8.523-19 19v49h-24v-60c0-17.645-14.355-32-32-32s-32 14.355-32 32v60h-46v-60c0-17.645-14.355-32-32-32s-32 14.355-32 32v60h-24v-49c0-10.477-8.523-19-19-19h-41c-10.477 0-19 8.523-19 19v49h-34c-5.523 0-10 4.478-10 10v48c0 5.522 4.477 10 10 10h34v49c0 10.477 8.523 19 19 19h41c10.477 0 19-8.523 19-19v-49h24v150h-70.5c-24.538 0-44.5 19.963-44.5 44.5v29.5c0 5.522 4.477 10 10 10h105v50h-111c-31.981 0-58 26.019-58 58 0 5.522 4.477 10 10 10h200.811c5.523 0 10-4.478 10-10s-4.477-10-10-10h-189.476c4.4-16.118 19.171-28 36.665-28h396c17.494 0 32.265 11.882 36.665 28h-189.853c-5.522 0-10 4.478-10 10s4.478 10 10 10h201.188c5.522 0 10-4.478 10-10 0-31.981-26.019-58-58-58zm-131-134h-24v-150h24zm-90 0v-150h46v150zm237-197.5v27h-24v-27zm-83-68.5h39v164h-39zm-88-12c0-6.617 5.383-12 12-12s12 5.383 12 12v60h-24zm-110 0c0-6.617 5.383-12 12-12s12 5.383 12 12v60h-24zm-147 108v-28h24v28zm83 68h-39v-164h39zm20-96h222v28h-222zm44 48h24v150h-24zm-115 194.5c0-13.51 10.991-24.5 24.5-24.5h315c13.51 0 24.5 10.99 24.5 24.5v19.5h-364zm205 39.5v50h-46v-50zm-90 50v-50h24v50zm110 0v-50h24v50z"/><path id="XMLID_518_" d="m255.81 491.81c-2.63 0-5.21 1.07-7.07 2.931-1.86 1.859-2.93 4.439-2.93 7.069s1.07 5.21 2.93 7.07 4.44 2.93 7.07 2.93c2.629 0 5.209-1.069 7.07-2.93s2.93-4.44 2.93-7.07-1.069-5.21-2.93-7.069c-1.86-1.861-4.441-2.931-7.07-2.931z"/></g></g></svg>