<svg id="Layer_1" enable-background="new 0 0 511.999 511.999" height="512" viewBox="0 0 511.999 511.999" width="512" xmlns="http://www.w3.org/2000/svg"><g id="XMLID_652_"><g id="XMLID_450_"><path id="XMLID_490_" d="m501.999 380.5h-54c-5.41 0-9.806 4.3-9.983 9.667h-71.016c-5.522 0-10 4.478-10 10s4.478 10 10 10h70.999v28h-317.666v-18.834c0-3.728-2.073-7.146-5.379-8.868l-.572-.298h162.618c5.522 0 10-4.478 10-10s-4.478-10-10-10h-78.49l-38.331-48.505c-1.896-2.399-4.787-3.8-7.846-3.8h-73.708l28.16-111.362h3.548c3.687 0 7.074-2.028 8.814-5.278l7.173-13.389h96.68c4.457 0 8.377-2.95 9.609-7.233l12.667-44c.869-3.019.27-6.271-1.62-8.78-1.889-2.51-4.848-3.986-7.989-3.986h-132.184l-42.742-84.514c-1.702-3.365-5.152-5.487-8.924-5.487h-40.817c-3.474 0-6.699 1.803-8.519 4.763-1.819 2.959-1.973 6.65-.405 9.75l38.179 75.491c-5.486.042-9.923 4.5-9.923 9.996v62.667c0 5.522 4.478 10 10 10h1.824l-39.858 157.623c-1.435 1.731-2.298 3.953-2.298 6.377v57.667c0 5.522 4.478 10 10 10l491.999-.001c5.522 0 10-4.478 10-10v-57.666c0-5.523-4.478-10-10-10zm-354.509-22.638 25.529 32.305h-97.018l-9.368-4.881 6.935-27.423h73.922zm67.983-170.029h-95.14c-3.687 0-7.074 2.028-8.814 5.278l-7.173 13.389h-54.013v-42.667h172.049zm-169.804-114 33.885 67h-18.406l-33.885-67zm40.488 152.667-38.943 154h-23.371l38.943-154zm-66.157 174h32.551l47.782 24.898v12.769h-80.333zm471.999 37.666h-34v-37.666h34z"/><path id="XMLID_542_" d="m322 410.169c2.63 0 5.21-1.07 7.069-2.93 1.86-1.86 2.931-4.44 2.931-7.07s-1.07-5.21-2.931-7.07c-1.859-1.87-4.439-2.93-7.069-2.93s-5.21 1.06-7.07 2.93c-1.86 1.86-2.93 4.431-2.93 7.07 0 2.63 1.069 5.21 2.93 7.07 1.86 1.86 4.44 2.93 7.07 2.93z"/></g></g></svg>