<svg id="Layer_1" enable-background="new 0 0 512.001 512.001" height="512" viewBox="0 0 512.001 512.001" width="512" xmlns="http://www.w3.org/2000/svg"><g id="XMLID_680_"><g id="XMLID_167_"><path id="XMLID_220_" d="m312.167 424.001c25.364 0 46-20.636 46-46s-20.636-46-46-46-46 20.636-46 46c0 .355.019.705.027 1.058l-26.846 6.632c-4.708-10.418-15.191-17.69-27.348-17.69h-12.667c-16.542 0-30 13.458-30 30s13.458 30 30 30h12.667c13.808 0 25.46-9.38 28.937-22.101l30.054-7.426c7.547 15.116 23.165 25.527 41.176 25.527zm-100.167-16h-12.667c-5.514 0-10-4.486-10-10s4.486-10 10-10h12.667c5.514 0 10 4.486 10 10s-4.485 10-10 10zm100.167-56c14.336 0 26 11.663 26 26s-11.664 26-26 26c-8.55 0-16.147-4.149-20.888-10.539l23.287-5.753c5.362-1.324 8.634-6.745 7.31-12.106-1.324-5.362-6.744-8.637-12.106-7.31l-23.302 5.757c1.907-12.469 12.705-22.049 25.699-22.049z"/><path id="XMLID_252_" d="m438 448.001h-69.501c20.419-16.513 33.501-41.755 33.501-70 0-35.71-20.906-66.628-51.121-81.161l54.746-150.324h38.748c18.748 0 34-15.252 34-34s-15.252-34-34-34h-74.016c-18.748 0-34 15.252-34 34s15.252 34 34 34h13.983l-52.343 143.727c-6.433-1.465-13.126-2.242-19.996-2.242h-57.666c-42.972 0-81.611 18.883-108.074 48.78l-26.392-26.187 81.961-208.628 19.642-34.021c2.762-4.783 1.123-10.898-3.66-13.66l-91.703-52.943c-4.784-2.762-10.899-1.123-13.66 3.66l-20 34.641c-2.762 4.783-1.123 10.898 3.66 13.66l49.211 28.412-30.019 76.413c-2.02 5.14.511 10.944 5.651 12.964 1.201.472 2.438.695 3.654.695 3.991 0 7.762-2.406 9.31-6.347l28.919-73.613 17.516 10.113-81.504 207.464c-1.459 3.716-.57 7.943 2.264 10.755l32.864 32.608c-3.578 5.394-6.809 11.036-9.648 16.903l-50.774-50.855 27.446-69.586c2.026-5.138-.496-10.945-5.634-12.972-5.136-2.023-10.945.496-12.972 5.634l-29.851 75.683c-1.46 3.702-.586 7.918 2.226 10.734l61.576 61.674c-4.121 13.399-6.345 27.62-6.345 42.353 0 5.618 1.31 10.935 3.634 15.667h-39.633c-29.776 0-54 24.225-54 54 0 5.522 4.477 10 10 10h452c5.523 0 10-4.478 10-10 0-29.777-24.224-54.001-54-54.001zm-81.643-335.485c0-7.72 6.28-14 14-14h74.016c7.719 0 14 6.28 14 14s-6.28 14-14 14h-74.016c-7.72 0-14-6.28-14-14zm-231.588-88.854 74.381 42.943-10 17.321-74.381-42.944zm5.231 408.672c0-13.919 2.299-27.311 6.537-39.816.655-1.107 1.078-2.31 1.269-3.545 17.636-47.24 63.214-80.972 116.527-80.972h57.667c38.598 0 70 31.402 70 70s-31.402 70-70 70h-166.333c-8.639 0-15.667-7.028-15.667-15.667zm-88.499 59.667c4.28-13.883 17.23-24 32.5-24h364c15.269 0 28.22 10.117 32.5 24z"/><path id="XMLID_258_" d="m108.15 213.671c2.63 0 5.21-1.07 7.08-2.93 1.86-1.87 2.92-4.44 2.92-7.07 0-2.641-1.06-5.21-2.92-7.08-1.87-1.86-4.44-2.92-7.08-2.92-2.63 0-5.2 1.06-7.07 2.92-1.86 1.87-2.92 4.439-2.92 7.08 0 2.63 1.06 5.2 2.92 7.07 1.87 1.859 4.44 2.93 7.07 2.93z"/></g></g></svg>