<svg id="Layer_1" enable-background="new 0 0 512 512" height="512" viewBox="0 0 512 512" width="512" xmlns="http://www.w3.org/2000/svg"><g id="XMLID_1615_"><g id="XMLID_124_"><path id="XMLID_174_" d="m170 355.973c-29.776 0-54 24.225-54 54s24.224 54 54 54 54-24.225 54-54-24.224-54-54-54zm0 88c-18.748 0-34-15.252-34-34s15.252-34 34-34 34 15.252 34 34-15.252 34-34 34z"/><path id="XMLID_187_" d="m170 399.97c-2.63 0-5.21 1.07-7.07 2.93s-2.93 4.44-2.93 7.07 1.07 5.21 2.93 7.07c1.86 1.859 4.44 2.93 7.07 2.93s5.21-1.07 7.07-2.93 2.93-4.44 2.93-7.07-1.07-5.21-2.93-7.07-4.44-2.93-7.07-2.93z"/><path id="XMLID_192_" d="m213.98 191.905c-16.542 0-30 13.458-30 30s13.458 30 30 30 30-13.458 30-30v-116.363c0-3.127-1.463-6.074-3.954-7.965-2.491-1.892-5.724-2.509-8.735-1.667l-87.96 24.553c-4.322 1.206-7.312 5.145-7.312 9.632v88.083c-3.13-1.11-6.494-1.72-10-1.72-16.542 0-30 13.458-30 30s13.458 30 30 30 30-13.458 30-30v-70.021l67.96-18.971v36.159c-3.129-1.11-6.493-1.72-9.999-1.72zm0 40c-5.514 0-10-4.486-10-10s4.486-10 10-10 10 4.486 10 10-4.486 10-10 10zm-87.96 24.553c-5.514 0-10-4.486-10-10s4.486-10 10-10 10 4.486 10 10-4.486 10-10 10zm30-100.785v-17.987l67.96-18.97v17.986z"/><path id="XMLID_195_" d="m286 44h-232c-5.523 0-10 4.478-10 10v87c0 5.522 4.477 10 10 10s10-4.478 10-10v-77h212v244h-212v-77c0-5.522-4.477-10-10-10s-10 4.478-10 10v87c0 5.522 4.477 10 10 10h232c5.523 0 10-4.478 10-10v-264c0-5.522-4.477-10-10-10z"/><path id="XMLID_199_" d="m401.32 44h44.183c4.281 13.882 17.229 24 32.497 24h24c5.523 0 10-4.478 10-10v-48c0-5.522-4.477-10-10-10h-24c-15.269 0-28.217 10.118-32.497 24h-44.183c-20.578 0-37.32 16.742-37.32 37.32v321.333c0 9.55-7.77 17.319-17.32 17.319h-6.68v-349.972c0-27.57-22.43-50-50-50h-240c-27.57 0-50 22.43-50 50v412c0 27.57 22.43 50 50 50h240c27.57 0 50-22.43 50-50v-42.027h6.68c20.578 0 37.32-16.741 37.32-37.319v-116.654h2.68c20.578 0 37.32-16.742 37.32-37.32v-71.36c0-9.551 7.77-17.32 17.32-17.32h4.183c4.281 13.882 17.229 24 32.497 24h24c5.523 0 10-4.478 10-10v-48c0-5.522-4.477-10-10-10h-24c-15.269 0-28.217 10.118-32.497 24h-4.183c-20.578 0-37.32 16.742-37.32 37.32v71.359c0 9.551-7.77 17.32-17.32 17.32h-2.68v-184.679c0-9.55 7.77-17.32 17.32-17.32zm76.68-24h14v28h-14c-7.72 0-14-6.28-14-14s6.28-14 14-14zm-158 442c0 16.542-13.458 30-30 30h-240c-16.542 0-30-13.458-30-30v-412c0-16.542 13.458-30 30-30h240c16.542 0 30 13.458 30 30zm158-346h14v28h-14c-7.72 0-14-6.28-14-14s6.28-14 14-14z"/><path id="XMLID_208_" d="m54 196c2.63 0 5.21-1.07 7.07-2.931 1.86-1.859 2.93-4.439 2.93-7.069s-1.07-5.21-2.93-7.07-4.44-2.93-7.07-2.93-5.21 1.069-7.07 2.93c-1.86 1.86-2.93 4.44-2.93 7.07s1.07 5.21 2.93 7.069c1.86 1.861 4.44 2.931 7.07 2.931z"/></g></g></svg>