<svg id="Layer_1" enable-background="new 0 0 512 512" height="512" viewBox="0 0 512 512" width="512" xmlns="http://www.w3.org/2000/svg"><g id="XMLID_1873_"><g id="XMLID_263_"><path id="XMLID_266_" d="m462 70h-160.873c-5.523 0-10 4.478-10 10s4.477 10 10 10h160.873c16.542 0 30 13.458 30 30v272c0 16.542-13.458 30-30 30h-412c-16.542 0-30-13.458-30-30v-272c0-16.542 13.458-30 30-30h161.127c5.523 0 10-4.478 10-10s-4.477-10-10-10h-161.127c-27.57 0-50 22.43-50 50v272c0 27.57 22.43 50 50 50h412c27.57 0 50-22.43 50-50v-272c0-27.57-22.43-50-50-50z"/><path id="XMLID_385_" d="m265 398h30c10.477 0 19-8.523 19-19v-13h76v13c0 10.477 8.523 19 19 19h30c10.477 0 19-8.523 19-19v-86c0-10.477-8.523-19-19-19h-30c-10.477 0-19 8.523-19 19v13h-76v-13c0-10.477-8.523-19-19-19h-30c-10.477 0-19 8.523-19 19v86c0 10.477 8.523 19 19 19zm145-104h28v84h-28zm-20 32v20h-76v-20zm-124-32h28v84h-28z"/><path id="XMLID_390_" d="m54 376c0 5.522 4.477 10 10 10h80c5.523 0 10-4.478 10-10v-80c0-5.522-4.477-10-10-10h-80c-5.523 0-10 4.478-10 10zm20-70h60v60h-60z"/><path id="XMLID_391_" d="m256.127 232c5.523 0 10-4.478 10-10v-80c0-5.522-4.477-10-10-10s-10 4.478-10 10v80c0 5.522 4.477 10 10 10z"/><path id="XMLID_392_" d="m208.874 138.994-18.511 55.721-19.436-55.994c-1.811-5.217-7.508-7.98-12.727-6.168-5.217 1.812-7.979 7.509-6.168 12.727l27.376 78.868c1.672 4.706 6.135 7.853 11.124 7.853h.083c5.021-.035 9.48-3.253 11.118-8.072l26.121-78.629c1.741-5.241-1.096-10.901-6.337-12.643-5.24-1.74-10.902 1.095-12.643 6.337z"/><path id="XMLID_399_" d="m302.074 232c5.523 0 10-4.478 10-10v-24.748h12.275c18.206 0 33.018-14.658 33.018-32.676 0-17.963-14.812-32.576-33.018-32.576h-22.275c-5.523 0-10 4.478-10 10v80c0 5.522 4.477 10 10 10zm35.294-67.424c0 6.871-5.961 12.676-13.018 12.676h-12.275v-25.252h12.275c7.056 0 13.018 5.759 13.018 12.576z"/><path id="XMLID_400_" d="m448 192c5.523 0 10-4.478 10-10s-4.477-10-10-10h-48c-5.523 0-10 4.478-10 10s4.477 10 10 10z"/><path id="XMLID_401_" d="m64 192h48c5.523 0 10-4.478 10-10s-4.477-10-10-10h-48c-5.523 0-10 4.478-10 10s4.477 10 10 10z"/><path id="XMLID_402_" d="m256.13 90c2.63 0 5.21-1.07 7.07-2.931 1.86-1.859 2.93-4.439 2.93-7.069s-1.07-5.21-2.93-7.07-4.44-2.93-7.07-2.93c-2.64 0-5.21 1.069-7.07 2.93-1.87 1.86-2.93 4.44-2.93 7.07s1.06 5.21 2.93 7.069c1.86 1.861 4.43 2.931 7.07 2.931z"/></g></g></svg>