<svg id="Layer_1" enable-background="new 0 0 512 512" height="512" viewBox="0 0 512 512" width="512" xmlns="http://www.w3.org/2000/svg"><g id="XMLID_77_"><path id="XMLID_103_" d="m25.041 433.085c-5.523 0-10 4.478-10 10v58.915c0 5.522 4.477 10 10 10s10-4.478 10-10v-58.915c0-5.522-4.478-10-10-10z"/><path id="XMLID_88_" d="m463.041 388h-30c-5.086 0-9.91 1.13-14.246 3.14-3.621-53.024-47.909-95.058-101.836-95.058h-49.877c-4.794 0-8.694-3.9-8.694-8.694v-20.814c7.823-4.588 14.815-10.433 20.709-17.259 34.05-20.419 54.335-55.294 54.335-93.626 0-46.219-29.958-85.904-72.376-102.441.525-2.758.803-5.57.803-8.427 0-24.716-20.105-44.821-44.818-44.821s-44.819 20.105-44.819 44.819c0 2.854.274 5.668.8 8.428-42.417 16.538-72.373 56.222-72.373 102.44 0 38.332 20.286 73.207 54.336 93.626 5.894 6.827 12.887 12.671 20.709 17.26v20.814c0 4.794-3.9 8.694-8.694 8.694h-49.877c-37.465 0-71.857 20.468-89.755 53.416-2.636 4.854-.839 10.925 4.014 13.561 1.517.824 3.152 1.215 4.765 1.215 3.547 0 6.983-1.892 8.796-5.229 11.839-21.792 32.648-36.787 56.422-41.431v50.62c0 9.574-3.423 18.856-9.639 26.138-11.972 14.023-18.565 31.901-18.565 50.341 0 19.146 7.042 37.537 19.83 51.785l10.931 12.181c1.976 2.201 4.705 3.321 7.446 3.321 2.378 0 4.766-.844 6.675-2.558 4.11-3.688 4.453-10.011.764-14.121l-10.931-12.182c-9.489-10.572-14.715-24.22-14.715-38.427 0-13.683 4.893-26.949 13.776-37.355 9.304-10.898 14.428-24.793 14.428-39.123v-52.152h25.439c4.383 34.87 34.199 61.938 70.238 61.938s65.855-27.068 70.238-61.938h25.438v52.152c0 6.793 1.165 13.484 3.367 19.809-.567-.028-1.137-.043-1.71-.043h-29.576c-18.748 0-34 15.252-34 34v56c0 18.748 15.252 34 34 34h29.576c17.049 0 31.204-12.614 33.629-29h51.407c2.426 16.386 16.58 29 33.629 29h30c18.748 0 34-15.252 34-34v-56c.001-18.747-15.251-33.999-33.999-33.999zm-64 10.163v18.837h-43.254c-3.159-8.227-7.723-15.943-13.43-22.629-6.216-7.28-9.639-16.563-9.639-26.137v-50.618c37.744 7.371 66.323 40.677 66.323 80.547zm-206.819-353.344c0-13.686 11.134-24.819 24.819-24.819s24.819 11.134 24.819 24.819c0 .913-.051 1.817-.147 2.712-7.955-1.639-16.208-2.511-24.672-2.511-8.463 0-16.715.871-24.669 2.51-.097-.894-.15-1.798-.15-2.711zm-71.574 110.869c0-49.994 43.241-90.667 96.392-90.667 53.15 0 96.392 40.673 96.392 90.667 0 17.529-5.257 34.194-14.81 48.412.275-2.728.418-5.495.418-8.294v-34.261c0-5.522-4.478-10-10-10-21.048 0-40.847-9.295-54.321-25.501-1.744-2.098-4.269-3.393-6.991-3.583-2.716-.2-5.402.739-7.422 2.573-20.635 18.74-47.365 29.062-75.267 29.062-5.523 0-10 4.478-10 10v31.71c0 2.799.143 5.566.418 8.294-9.551-14.219-14.809-30.884-14.809-48.412zm34.393 40.117v-22.086c25.951-1.958 50.65-11.509 71.153-27.512 14.418 13.901 32.953 22.596 52.847 24.788v24.81c0 34.187-27.813 62-62 62s-62-27.814-62-62zm62 162.216c-24.99 0-45.81-18.139-50.022-41.939 15.813-.01 28.675-12.878 28.675-28.694v-12.419c6.811 1.838 13.963 2.836 21.347 2.836s14.536-.998 21.347-2.836v12.419c0 15.816 12.862 28.684 28.676 28.694-4.213 23.8-25.033 41.939-50.023 41.939zm111.334 119.979c0 7.72-6.28 14-14 14h-29.576c-7.72 0-14-6.28-14-14v-56c0-7.72 6.28-14 14-14h29.576c7.72 0 14 6.28 14 14zm20-41h.013c.055.001 50.653 0 50.653 0v26h-50.666zm128.666 41c0 7.72-6.28 14-14 14h-30c-7.72 0-14-6.28-14-14v-56c0-7.72 6.28-14 14-14h30c7.72 0 14 6.28 14 14z"/><path id="XMLID_79_" d="m235.611 221.876c3.906-3.904 3.906-10.236.001-14.142-3.904-3.905-10.237-3.905-14.142-.001-2.443 2.441-6.417 2.441-8.859 0-3.905-3.904-10.237-3.904-14.142 0-3.905 3.906-3.905 10.237 0 14.143 5.121 5.12 11.844 7.68 18.571 7.68 6.725 0 13.452-2.561 18.571-7.68z"/><path id="XMLID_78_" d="m24.959 408.08c2.63 0 5.21-1.07 7.07-2.931 1.86-1.859 2.93-4.43 2.93-7.069 0-2.63-1.07-5.21-2.93-7.07s-4.44-2.93-7.07-2.93c-2.64 0-5.21 1.069-7.07 2.93-1.86 1.86-2.93 4.44-2.93 7.07 0 2.64 1.07 5.21 2.93 7.069 1.861 1.861 4.44 2.931 7.07 2.931z"/></g></svg>