<svg id="Layer_1" enable-background="new 0 0 511.997 511.997" height="512" viewBox="0 0 511.997 511.997" width="512" xmlns="http://www.w3.org/2000/svg"><g id="XMLID_1145_"><g id="XMLID_404_"><path id="XMLID_488_" d="m483.375 455.452-49.71-185.521c-2.534-9.459-8.6-17.364-17.08-22.26-5.013-2.895-10.516-4.522-16.13-4.854-9.07-33.867-44.412-165.825-44.464-165.982-11.783-44.188-52.143-76.835-99.992-76.835-47.01 0-88.078 31.644-100.048 77.006-.034.109-35.344 131.962-44.409 165.813-5.615.332-11.117 1.959-16.13 4.854-8.48 4.896-14.546 12.801-17.08 22.26l-12.345 46.07c-1.43 5.334 1.736 10.817 7.071 12.247 5.34 1.432 10.817-1.737 12.247-7.071l12.345-46.07c1.151-4.298 3.908-7.891 7.762-10.115 3.854-2.226 8.343-2.817 12.642-1.664l38.791 10.394c8.874 2.378 14.158 11.531 11.781 20.404l-1.854 6.918-14.589-3.909c-5.337-1.427-10.817 1.736-12.247 7.071-1.43 5.334 1.736 10.817 7.071 12.247l14.588 3.909-8.433 31.47-14.587-3.909c-5.338-1.43-10.818 1.737-12.248 7.07-1.43 5.335 1.736 10.818 7.07 12.248l14.589 3.91-8.432 31.47-14.588-3.909c-5.337-1.427-10.817 1.737-12.247 7.071s1.736 10.817 7.071 12.247l14.588 3.909-8.433 31.471-14.589-3.909c-5.336-1.431-10.817 1.736-12.247 7.071-1.43 5.334 1.736 10.817 7.071 12.247l14.588 3.909-1.854 6.918c-2.377 8.872-11.526 14.16-20.404 11.779l-38.792-10.395c-8.872-2.377-14.156-11.53-11.779-20.403l14.068-52.507c1.43-5.335-1.736-10.817-7.071-12.247-5.337-1.433-10.817 1.736-12.247 7.071l-14.068 52.507c-2.534 9.458-1.233 19.337 3.662 27.817 4.896 8.479 12.801 14.546 22.26 17.08l38.792 10.395c3.166.849 6.347 1.254 9.479 1.253 16.185-.001 31.036-10.816 35.419-27.175l49.71-185.521c4.232-15.793-2.571-31.986-15.659-40.37l19.845-74.065c18.098 14.179 40.601 22.085 63.868 22.085 24.082 0 46.256-8.283 63.856-22.131l19.858 74.11c-13.087 8.383-19.891 24.577-15.659 40.37l49.71 185.521c4.383 16.359 19.233 27.176 35.419 27.175 3.132 0 6.314-.404 9.479-1.253l38.792-10.395c9.459-2.534 17.364-8.601 22.26-17.08 4.897-8.48 6.198-18.359 3.663-27.817zm-102.722-209.268-22.067 5.912-22.344-83.389c6.763-8.305 12.279-17.664 16.226-27.804zm-124.654-59.232c-21.709 0-42.597-8.532-58.113-23.563l7.234-26.996c10.817 16.663 29.576 27.716 50.88 27.716 33.433 0 60.633-27.2 60.633-60.633s-27.2-60.633-60.633-60.633c-27.27 0-50.387 18.099-57.985 42.914-.055.167-34.737 129.543-44.601 166.339l-22.067-5.913c9.759-36.443 43.816-163.622 43.838-163.707 9.526-36.785 42.759-62.476 80.814-62.476 46.029 0 83.477 37.447 83.477 83.477-.001 46.028-37.448 83.475-83.477 83.475zm-40.633-83.475c0-22.405 18.228-40.633 40.633-40.633s40.633 18.228 40.633 40.633-18.228 40.633-40.633 40.633-40.633-18.228-40.633-40.633zm236.912 377.554-38.792 10.395c-8.875 2.38-18.026-2.906-20.404-11.779l-1.854-6.918 14.588-3.909c5.335-1.43 8.501-6.913 7.071-12.247-1.43-5.335-6.915-8.5-12.247-7.071l-14.589 3.909-8.433-31.471 14.588-3.909c5.335-1.43 8.501-6.913 7.071-12.247-1.43-5.335-6.914-8.499-12.247-7.071l-14.588 3.909-8.432-31.47 14.589-3.91c5.334-1.43 8.5-6.913 7.07-12.248s-6.91-8.504-12.248-7.07l-14.587 3.909-8.433-31.47 14.588-3.909c5.335-1.43 8.501-6.913 7.071-12.247-1.43-5.335-6.913-8.5-12.247-7.071l-14.589 3.909-1.854-6.918c-2.377-8.873 2.907-18.026 11.78-20.404l38.792-10.394h.001c1.436-.385 2.892-.575 4.339-.575 2.886 0 5.735.757 8.302 2.239 3.854 2.225 6.61 5.817 7.762 10.115l49.71 185.521c2.378 8.872-2.906 18.025-11.778 20.402z"/><path id="XMLID_519_" d="m63.999 372.06c2.63 0 5.21-1.069 7.069-2.93 1.86-1.86 2.931-4.44 2.931-7.07s-1.07-5.21-2.931-7.069c-1.859-1.86-4.439-2.931-7.069-2.931s-5.21 1.07-7.07 2.931c-1.86 1.859-2.93 4.439-2.93 7.069s1.069 5.21 2.93 7.07 4.44 2.93 7.07 2.93z"/></g></g></svg>