<svg id="Layer_1" enable-background="new 0 0 512 512" height="512" viewBox="0 0 512 512" width="512" xmlns="http://www.w3.org/2000/svg"><g id="XMLID_1007_"><g id="XMLID_476_"><path id="XMLID_564_" d="m366 180h-356c-5.522 0-10 4.478-10 10v89.151c0 4.22 2.648 7.985 6.62 9.411l219.351 78.771c13.133 44.479 47.015 81.057 92.384 96.712 1.08.373 2.181.55 3.263.55 4.146 0 8.023-2.601 9.452-6.741 1.802-5.221-.971-10.913-6.191-12.715-50.769-17.518-84.879-65.397-84.879-119.139 0-69.477 56.523-126 126-126s126 56.523 126 126c0 53.74-34.109 101.619-84.877 119.14-5.221 1.802-7.992 7.495-6.19 12.716s7.498 7.988 12.716 6.19c58.827-20.303 98.351-75.779 98.351-138.046 0-80.505-65.495-146-146-146zm-176.812 20v22h-52v-22zm30.812 126c0 6.196.398 12.323 1.16 18.356l-201.16-72.239v-72.117h97.188v32c0 5.522 4.478 10 10 10h72c5.522 0 10-4.478 10-10v-32h83.134c-43.231 25.376-72.322 72.351-72.322 126z"/><path id="XMLID_568_" d="m434 326c0-37.495-30.505-68-68-68s-68 30.505-68 68 30.505 68 68 68 68-30.505 68-68zm-116 0c0-26.468 21.532-48 48-48s48 21.532 48 48-21.532 48-48 48-48-21.532-48-48z"/><path id="XMLID_569_" d="m163.188 138.333c5.522 0 10-4.478 10-10v-78.333c0-5.522-4.478-10-10-10s-10 4.478-10 10v78.333c0 5.522 4.478 10 10 10z"/><path id="XMLID_570_" d="m224.203 138.848c2.56 0 5.118-.977 7.071-2.929l38.078-38.078c3.905-3.905 3.905-10.237 0-14.143-3.906-3.904-10.236-3.904-14.143 0l-38.078 38.078c-3.905 3.905-3.905 10.237 0 14.143 1.954 1.952 4.513 2.929 7.072 2.929z"/><path id="XMLID_571_" d="m95.103 135.919c1.953 1.952 4.512 2.929 7.071 2.929s5.118-.977 7.071-2.929c3.905-3.905 3.905-10.237 0-14.143l-38.078-38.078c-3.906-3.904-10.236-3.904-14.143 0-3.905 3.905-3.905 10.237 0 14.143z"/><path id="XMLID_572_" d="m366 452c-2.63 0-5.21 1.069-7.07 2.93s-2.93 4.44-2.93 7.07 1.069 5.21 2.93 7.069c1.86 1.86 4.44 2.931 7.07 2.931s5.21-1.07 7.069-2.931c1.861-1.859 2.931-4.439 2.931-7.069s-1.07-5.21-2.931-7.07c-1.859-1.861-4.439-2.93-7.069-2.93z"/></g></g></svg>