<svg id="Layer_1" enable-background="new 0 0 512 512" height="512" viewBox="0 0 512 512" width="512" xmlns="http://www.w3.org/2000/svg"><g id="XMLID_1018_"><g id="XMLID_589_"><path id="XMLID_681_" d="m94 228c31.467 0 60.945-15.953 78.288-42h167.424c17.343 26.047 46.821 42 78.288 42 33.225 0 63.324-16.998 80.518-45.469 2.854-4.728 1.337-10.875-3.392-13.729-4.727-2.856-10.875-1.336-13.729 3.391-13.54 22.421-37.24 35.807-63.397 35.807-25.448 0-49.247-13.263-62.734-34.781v-78.438c13.487-21.518 37.286-34.781 62.734-34.781 26.157 0 49.857 13.386 63.397 35.809 2.854 4.727 8.999 6.247 13.73 3.391 4.728-2.855 6.245-9.002 3.391-13.729-17.194-28.473-47.294-45.471-80.518-45.471-31.467 0-60.945 15.953-78.288 42h-167.424c-17.343-26.047-46.821-42-78.288-42-51.832 0-94 42.168-94 94s42.168 94 94 94zm241.266-62h-39.511v-64h39.511zm-59.511 0h-39.51v-64h39.51zm-59.51 0h-39.511v-64h39.511zm-122.245-106c25.448 0 49.247 13.263 62.734 34.781v78.438c-13.487 21.518-37.286 34.781-62.734 34.781-40.804 0-74-33.196-74-74s33.196-74 74-74z"/><path id="XMLID_687_" d="m418 284c-31.467 0-60.945 15.953-78.288 42h-167.424c-17.343-26.047-46.821-42-78.288-42-51.832 0-94 42.168-94 94s42.168 94 94 94c31.467 0 60.945-15.953 78.288-42h167.424c17.343 26.047 46.821 42 78.288 42 51.832 0 94-42.168 94-94s-42.168-94-94-94zm-241.266 62h39.511v64h-39.511zm59.511 0h39.51v64h-39.51zm59.51 0h39.511v64h-39.511zm-201.755 106c-40.804 0-74-33.196-74-74s33.196-74 74-74c25.448 0 49.247 13.263 62.734 34.781v78.438c-13.487 21.518-37.286 34.781-62.734 34.781zm324 0c-25.448 0-49.247-13.263-62.734-34.781v-78.438c13.487-21.518 37.286-34.781 62.734-34.781 40.804 0 74 33.196 74 74s-33.196 74-74 74z"/><path id="XMLID_707_" d="m492 134c0 2.63 1.069 5.21 2.93 7.07s4.44 2.93 7.07 2.93 5.21-1.07 7.069-2.93c1.86-1.86 2.931-4.44 2.931-7.07s-1.07-5.21-2.931-7.07c-1.859-1.86-4.439-2.93-7.069-2.93-2.641 0-5.21 1.07-7.07 2.93-1.861 1.86-2.93 4.44-2.93 7.07z"/></g></g></svg>