<svg id="Layer_1" enable-background="new 0 0 512 512" height="512" viewBox="0 0 512 512" width="512" xmlns="http://www.w3.org/2000/svg"><g id="XMLID_157_"><g id="XMLID_573_"><path id="XMLID_574_" d="m462 40h-160.873c-5.522 0-10 4.478-10 10s4.478 10 10 10h160.873c16.542 0 30 13.458 30 30v332c0 16.542-13.458 30-30 30h-412c-16.542 0-30-13.458-30-30v-332c0-16.542 13.458-30 30-30h161.127c5.522 0 10-4.478 10-10s-4.478-10-10-10h-161.127c-27.57 0-50 22.43-50 50v332c0 27.57 22.43 50 50 50h412c27.57 0 50-22.43 50-50v-332c0-27.57-22.43-50-50-50z"/><path id="XMLID_629_" d="m140 337c-14.153 0-26.181 9.239-30.391 22h-45.609c-5.522 0-10 4.478-10 10s4.478 10 10 10h45.609c4.21 12.761 16.239 22 30.391 22s26.181-9.239 30.391-22h277.609c5.522 0 10-4.478 10-10s-4.478-10-10-10h-277.609c-4.21-12.761-16.238-22-30.391-22zm0 44c-6.617 0-12-5.383-12-12s5.383-12 12-12 12 5.383 12 12-5.383 12-12 12z"/><path id="XMLID_632_" d="m343 133.5h-30c-10.477 0-19 8.523-19 19v28.5h-76v-28.5c0-10.477-8.523-19-19-19h-30c-10.477 0-19 8.523-19 19v.833h-21c-10.477 0-19 8.523-19 19v77.334c0 10.477 8.523 19 19 19h21v.833c0 10.477 8.523 19 19 19h30c10.477 0 19-8.523 19-19v-28.5h76v28.5c0 10.477 8.523 19 19 19h30c10.477 0 19-8.523 19-19v-.833h21c10.477 0 19-8.523 19-19v-77.334c0-10.477-8.523-19-19-19h-21v-.833c0-10.477-8.523-19-19-19zm-213 115.167v-75.334h20v75.334zm68 19.833h-28v-115h28zm20-47.5v-20h76v20zm124 47.5h-28v-115h28zm40-95.167v75.334h-20v-75.334z"/><path id="XMLID_637_" d="m256.13 60c2.63 0 5.21-1.07 7.07-2.931 1.859-1.859 2.93-4.439 2.93-7.069s-1.07-5.21-2.93-7.07-4.44-2.93-7.07-2.93c-2.64 0-5.21 1.069-7.07 2.93-1.859 1.86-2.93 4.44-2.93 7.07s1.07 5.21 2.93 7.069c1.86 1.861 4.43 2.931 7.07 2.931z"/></g></g></svg>