<svg id="Layer_1" enable-background="new 0 0 512 512" height="512" viewBox="0 0 512 512" width="512" xmlns="http://www.w3.org/2000/svg"><g id="XMLID_1346_"><g id="XMLID_903_"><path id="XMLID_937_" d="m186 234.333c0-4.589-3.123-8.588-7.575-9.701-4.451-1.115-9.089.946-11.249 4.995l-55.506 104.074c-1.653 3.1-1.559 6.839.249 9.851 1.807 3.012 5.062 4.855 8.575 4.855h45.506v37.411c0 4.505 3.012 8.454 7.357 9.645.878.24 1.766.356 2.644.356 3.467 0 6.77-1.811 8.603-4.903l55.506-93.667c1.832-3.091 1.864-6.927.085-10.049s-5.096-5.049-8.688-5.049h-45.507zm27.956 67.819-27.956 47.176v-10.92c0-5.523-4.477-10-10-10h-38.839l28.839-54.075v17.818c0 5.523 4.477 10 10 10h37.956z"/><path id="XMLID_943_" d="m480 279.365v-29.365c0-16.542-13.458-30-30-30h-88c-3.506 0-6.87.61-10 1.72v-39.579c0-50.197-35.073-92.355-82-103.259v-48.882c0-16.542-13.458-30-30-30h-128c-16.542 0-30 13.458-30 30v48.882c-46.927 10.904-82 53.062-82 103.259v255.87c0 40.798 33.191 73.989 73.989 73.989h204.021c14.186 0 28.057-4.109 39.904-11.691 8.69 7.29 19.882 11.691 32.086 11.691h112c27.57 0 50-22.43 50-50v-136c0-21.226-13.301-39.392-32-46.635zm-118-39.365h88c5.514 0 10 4.486 10 10v26h-108v-26c0-5.514 4.486-10 10-10zm-112-210v46.141h-20v-56.141h10c5.514 0 10 4.486 10 10zm-108 46.141v-56.141h24v56.141zm44-56.141h24v56.141h-24zm-84 56.141v-46.141c0-5.514 4.486-10 10-10h10v56.141zm4 20h140c44.036 0 80.427 33.276 85.4 76h-110.4c-5.523 0-10 4.477-10 10s4.477 10 10 10h111v87.224c-18.699 7.243-32 25.409-32 46.635v102.011h-280v-235.87h111c5.523 0 10-4.477 10-10s-4.477-10-10-10h-110.4c4.973-42.724 41.364-76 85.4-76zm-32.011 395.859c-26.352 0-48.341-18.983-53.046-43.989h279.057v13.989c0 8.104 1.95 15.757 5.388 22.534-8.248 4.849-17.71 7.466-27.377 7.466zm418.011-30c0 16.542-13.458 30-30 30h-112c-16.542 0-30-13.458-30-30v-136c0-16.542 13.458-30 30-30h112c16.542 0 30 13.458 30 30z"/><path id="XMLID_972_" d="m426.762 377.296h-10.762v-11.627c0-4.589-3.123-8.588-7.575-9.701-4.452-1.114-9.09.947-11.249 4.995l-20.762 38.928c-1.653 3.1-1.559 6.839.249 9.851 1.807 3.012 5.062 4.855 8.575 4.855h10.762v7.734c0 4.505 3.012 8.454 7.357 9.645.878.24 1.766.356 2.644.356 3.467 0 6.77-1.811 8.603-4.903l20.762-35.035c1.832-3.091 1.864-6.927.085-10.049s-5.097-5.049-8.689-5.049z"/><path id="XMLID_974_" d="m176 192.14c2.63 0 5.21-1.07 7.07-2.93s2.93-4.44 2.93-7.07-1.07-5.21-2.93-7.07-4.44-2.93-7.07-2.93-5.21 1.07-7.07 2.93-2.93 4.44-2.93 7.07 1.07 5.21 2.93 7.07 4.44 2.93 7.07 2.93z"/></g></g></svg>