<svg id="Layer_1" enable-background="new 0 0 512.001 512.001" height="512" viewBox="0 0 512.001 512.001" width="512" xmlns="http://www.w3.org/2000/svg"><g id="XMLID_152_"><g id="XMLID_880_"><path id="XMLID_881_" d="m180.584 472.415c-28.579-1.287-57.439-3.913-85.78-7.803l-83.443-11.455c-5.469-.743-10.516 3.076-11.267 8.547-.751 5.471 3.076 10.516 8.547 11.267l83.443 11.455c28.942 3.973 58.415 6.654 87.601 7.968.153.007.306.01.458.01 5.316 0 9.741-4.186 9.982-9.55.248-5.516-4.023-10.19-9.541-10.439z"/><path id="XMLID_894_" d="m449.483 105.979v-29.211c0-32.057-26.08-58.136-58.136-58.136h-65.576c-30.187 0-54.745 24.559-54.745 54.746v36.633c0 30.452 24.774 55.227 55.226 55.227h25.273c5.099 0 9.963-1.021 14.405-2.861-1.825 9.338-4.383 18.507-7.68 27.452-6.428 17.446-9.687 35.798-9.687 54.548 0 21.278 4.236 42.083 12.387 61.374-32.005-10.425-66.344-11.395-98.87-2.839-32.679-45.821-85.07-72.968-141.63-72.968-43.468 0-85.085 16.125-117.185 45.406-4.08 3.722-4.371 10.047-.649 14.127s10.046 4.371 14.127.649c28.407-25.912 65.237-40.183 103.707-40.183 47.941 0 92.498 22.042 121.592 59.533-7.449 2.955-14.751 6.435-21.847 10.453-4.806 2.721-6.496 8.823-3.774 13.629 2.721 4.807 8.823 6.496 13.629 3.774 49.606-28.088 110.458-26.814 158.814 3.324 1.646 1.026 3.474 1.515 5.279 1.515 3.338 0 6.601-1.671 8.496-4.712 2.922-4.687 1.49-10.855-3.197-13.776-3.09-1.926-6.231-3.733-9.407-5.45-14.041-22.064-21.472-47.539-21.472-73.857 0-16.382 2.845-32.409 8.453-47.633 8.145-22.101 12.274-45.407 12.275-69.273v-17.198c0-20.825-16.942-37.768-37.768-37.768h-13.133c-5.522 0-10 4.477-10 10s4.478 10 10 10h13.135c9.797 0 17.768 7.971 17.768 17.768v17.198.001c0 9.797-7.971 17.767-17.768 17.767h-25.273c-19.424 0-35.226-15.803-35.226-35.227v-36.633c0-19.159 15.587-34.746 34.745-34.746h65.576c21.028 0 38.136 17.108 38.136 38.136v32.475c0 2.137.685 4.218 1.954 5.938 39.621 53.687 60.564 117.443 60.564 184.376 0 35.805-5.883 70.596-17.486 103.407-8.986 25.41-31.146 44.677-57.83 50.282-48.304 10.145-97.789 16.527-147.081 18.969-5.516.273-9.766 4.966-9.492 10.482.265 5.348 4.684 9.506 9.979 9.505.166 0 .334-.004.503-.012 50.338-2.494 100.873-9.011 150.202-19.372 33.468-7.03 61.276-31.241 72.574-63.187 12.362-34.958 18.631-71.992 18.631-110.075 0-70.129-21.606-136.989-62.518-193.577z"/><path id="XMLID_895_" d="m225.121 473.37c-2.63 0-5.21 1.06-7.07 2.92s-2.93 4.44-2.93 7.07c0 2.64 1.07 5.22 2.93 7.08s4.44 2.93 7.07 2.93 5.21-1.07 7.07-2.93c1.87-1.87 2.93-4.44 2.93-7.08 0-2.63-1.06-5.2-2.93-7.07-1.86-1.86-4.44-2.92-7.07-2.92z"/></g></g></svg>