<svg id="Layer_1" enable-background="new 0 0 511.97 511.97" height="512" viewBox="0 0 511.97 511.97" width="512" xmlns="http://www.w3.org/2000/svg"><g id="XMLID_1447_"><g id="XMLID_856_"><path id="XMLID_866_" d="m121.818 307.97h-17.833v-71.22c0-5.523-4.478-10-10-10s-10 4.477-10 10v71.22h-18.167c-16.542 0-30 13.458-30 30 0 12.342 7.493 22.963 18.167 27.563v106.437c0 22.056 17.944 40 40 40s40-17.944 40-40v-106.588c10.495-4.677 17.833-15.2 17.833-27.412 0-16.542-13.458-30-30-30zm-56 20h56c5.514 0 10 4.486 10 10s-4.486 10-10 10h-56c-5.514 0-10-4.486-10-10s4.486-10 10-10zm48.167 144c0 11.028-8.972 20-20 20s-20-8.972-20-20v-104h40z"/><path id="XMLID_885_" d="m476.152 337.97c0-16.542-13.458-30-30-30h-18.421v-243.942c0-35.305-28.723-64.028-64.028-64.028s-64.027 28.723-64.027 64.028v171.155c0 24.161-19.656 43.817-43.817 43.817s-43.817-19.656-43.817-43.817v-171.155c-.001-35.305-28.724-64.028-64.03-64.028-35.305 0-64.027 28.723-64.027 64.028v82.722c0 5.523 4.478 10 10 10s10-4.477 10-10v-82.722c0-24.277 19.751-44.028 44.028-44.028 24.276 0 44.027 19.751 44.027 44.028v171.155c0 35.189 28.628 63.817 63.817 63.817s63.817-28.628 63.817-63.817v-171.155c0-24.277 19.751-44.028 44.028-44.028 24.276 0 44.027 19.751 44.027 44.028v243.942h-17.579c-16.542 0-30 13.458-30 30 0 12.212 7.338 22.735 17.833 27.412v106.588c0 22.056 17.944 40 40 40s40-17.944 40-40v-106.437c10.676-4.6 18.169-15.222 18.169-27.563zm-86-10h56c5.514 0 10 4.486 10 10s-4.486 10-10 10h-56c-5.514 0-10-4.486-10-10s4.486-10 10-10zm47.833 144c0 11.028-8.972 20-20 20s-20-8.972-20-20v-104h40z"/><path id="XMLID_887_" d="m93.905 201.755c2.63 0 5.21-1.07 7.07-2.94 1.859-1.86 2.93-4.43 2.93-7.07 0-2.63-1.07-5.2-2.93-7.07-1.87-1.86-4.44-2.92-7.07-2.92s-5.21 1.06-7.08 2.92c-1.86 1.86-2.92 4.44-2.92 7.07 0 2.64 1.06 5.21 2.92 7.07 1.87 1.87 4.44 2.94 7.08 2.94z"/></g></g></svg>