<svg id="Capa_1" enable-background="new 0 0 512 512" height="512" viewBox="0 0 512 512" width="512" xmlns="http://www.w3.org/2000/svg"><g><path d="m495.84 400.093v-187.453c0-4.142-3.358-7.5-7.5-7.5s-7.5 3.358-7.5 7.5v187.38h-18.975c1.059-2.684 1.648-5.603 1.648-8.658l-.003-294.972c0-4.142-3.358-7.5-7.5-7.5h-400.02c-4.142 0-7.5 3.358-7.5 7.5v173.98c0 4.142 3.358 7.5 7.5 7.5s7.5-3.358 7.5-7.5v-166.48h385.02v233.132c-2.684-1.06-5.604-1.648-8.66-1.648h-78.792c-13.047 0-23.663 10.615-23.663 23.663v8.664h-273.905v-62.33c0-4.142-3.358-7.5-7.5-7.5s-7.5 3.358-7.5 7.5v69.83c0 4.142 3.358 7.5 7.5 7.5h281.404v8.662c0 3.056.589 5.975 1.648 8.658h-307.882v-315.751c0-7.003 5.702-12.7 12.71-12.7h424.26c7.008 0 12.71 5.697 12.71 12.7v93.37c0 4.142 3.358 7.5 7.5 7.5s7.5-3.358 7.5-7.5v-93.37c0-15.274-12.431-27.7-27.71-27.7h-424.26c-15.279 0-27.71 12.426-27.71 27.7v315.823c-9.032.737-16.16 8.313-16.16 17.537v20.2c0 9.705 7.896 17.6 17.6 17.6h54.4c4.142 0 7.5-3.358 7.5-7.5s-3.358-7.5-7.5-7.5h-54.4c-1.434 0-2.6-1.167-2.6-2.6v-20.2c0-1.439 1.167-2.61 2.6-2.61h476.8c1.434 0 2.6 1.171 2.6 2.61v20.2c0 1.434-1.167 2.6-2.6 2.6h-387.4c-4.142 0-7.5 3.358-7.5 7.5s3.358 7.5 7.5 7.5h387.4c9.705 0 17.6-7.896 17.6-17.6v-20.2c0-9.224-7.128-16.8-16.16-17.537zm-143.445-41.056c0-4.776 3.886-8.663 8.663-8.663h78.792c4.76 0 8.634 3.86 8.66 8.614v.052c0 .016.002.032.002.048v8.611h-96.118v-8.662zm0 32.325v-8.663h96.118v8.663c0 4.747-3.84 8.611-8.576 8.658h-78.967c-4.736-.047-8.575-3.911-8.575-8.658z"/></g></svg>